999
dxfrw 0.6.3
  0
SECTION
  2
HEADER
  9
$ACADVER
  1
AC1021
  9
$DWGCODEPAGE
  3
ANSI_1252
  9
$INSBASE
 10
0
 20
0
 30
0
  9
$EXTMIN
 10
175
 20
76
 30
0
  9
$EXTMAX
 10
225
 20
324
 30
0
  9
$LIMMIN
 10
0
 20
0
  9
$LIMMAX
 10
420
 20
297
  9
$ORTHOMODE
 70
    0
  9
$REGENMODE
 70
    1
  9
$FILLMODE
 70
    1
  9
$QTEXTMODE
 70
    0
  9
$MIRRTEXT
 70
    0
  9
$LTSCALE
 40
1
  9
$ATTMODE
 70
    0
  9
$TEXTSIZE
 40
2.5
  9
$TRACEWID
 40
15.68
  9
$TEXTSTYLE
  7
STANDARD
  9
$CLAYER
  8
X KP08 Holes Cen
  9
$CELTYPE
  6
BYLAYER
  9
$CECOLOR
 62
  256
  9
$CELTSCALE
 40
1
  9
$DISPSILH
 70
    0
  9
$DIMSCALE
 40
1
  9
$DIMASZ
 40
2.5
  9
$DIMEXO
 40
0.625
  9
$DIMDLI
 40
3.75
  9
$DIMRND
 40
0
  9
$DIMDLE
 40
0
  9
$DIMEXE
 40
1.25
  9
$DIMTP
 40
0
  9
$DIMTM
 40
0
  9
$DIMTXT
 40
2.5
  9
$DIMCEN
 40
2.5
  9
$DIMTSZ
 40
0
  9
$DIMTOL
 70
    0
  9
$DIMLIM
 70
    0
  9
$DIMTIH
 70
    0
  9
$DIMTOH
 70
    0
  9
$DIMSE1
 70
    0
  9
$DIMSE2
 70
    0
  9
$DIMTAD
 70
    1
  9
$DIMZIN
 70
    8
  9
$DIMBLK
  1

  9
$DIMASO
 70
    1
  9
$DIMSHO
 70
    1
  9
$DIMPOST
  1

  9
$DIMAPOST
  1

  9
$DIMALT
 70
    0
  9
$DIMALTD
 70
    3
  9
$DIMALTF
 40
0.03937
  9
$DIMLFAC
 40
1
  9
$DIMTOFL
 70
    1
  9
$DIMTVP
 40
0
  9
$DIMTIX
 70
    0
  9
$DIMSOXD
 70
    0
  9
$DIMSAH
 70
    0
  9
$DIMBLK1
  1

  9
$DIMBLK2
  1

  9
$DIMSTYLE
  2
STANDARD
  9
$DIMCLRD
 70
    0
  9
$DIMCLRE
 70
    0
  9
$DIMCLRT
 70
    0
  9
$DIMTFAC
 40
1
  9
$DIMGAP
 40
0.625
  9
$DIMJUST
 70
    0
  9
$DIMSD1
 70
    0
  9
$DIMSD2
 70
    0
  9
$DIMTOLJ
 70
    0
  9
$DIMTZIN
 70
    8
  9
$DIMALTZ
 70
    0
  9
$DIMALTTZ
 70
    0
  9
$DIMUPT
 70
    0
  9
$DIMDEC
 70
    2
  9
$DIMTDEC
 70
    2
  9
$DIMALTU
 70
    2
  9
$DIMALTTD
 70
    3
  9
$DIMTXSTY
  7
STANDARD
  9
$DIMAUNIT
 70
    0
  9
$DIMADEC
 70
    0
  9
$DIMALTRND
 40
0
  9
$DIMAZIN
 70
    0
  9
$DIMDSEP
 70
   44
  9
$DIMATFIT
 70
    3
  9
$DIMFRAC
 70
    0
  9
$DIMLDRBLK
  1
STANDARD
  9
$DIMLUNIT
 70
    2
  9
$DIMLWD
 70
   -2
  9
$DIMLWE
 70
   -2
  9
$DIMTMOVE
 70
    0
  9
$DIMFXL
 40
1
  9
$DIMFXLON
 70
    0
  9
$DIMJOGANG
 40
0.7854
  9
$DIMTFILL
 70
    0
  9
$DIMTFILLCLR
 70
    0
  9
$DIMARCSYM
 70
    0
  9
$DIMLTYPE
  6

  9
$DIMLTEX1
  6

  9
$DIMLTEX2
  6

  9
$LUNITS
 70
    2
  9
$LUPREC
 70
    4
  9
$SKETCHINC
 40
1
  9
$FILLETRAD
 40
0
  9
$AUNITS
 70
    0
  9
$AUPREC
 70
    2
  9
$MENU
  1
.
  9
$ELEVATION
 40
0
  9
$PELEVATION
 40
0
  9
$THICKNESS
 40
0
  9
$LIMCHECK
 70
    0
  9
$CHAMFERA
 40
0
  9
$CHAMFERB
 40
0
  9
$CHAMFERC
 40
0
  9
$CHAMFERD
 40
0
  9
$SKPOLY
 70
    0
  9
$USRTIMER
 70
    1
  9
$ANGBASE
 50
0
  9
$ANGDIR
 70
    0
  9
$PDMODE
 70
   34
  9
$PDSIZE
 40
0
  9
$PLINEWID
 40
0
  9
$SPLFRAME
 70
    0
  9
$SPLINETYPE
 70
    2
  9
$SPLINESEGS
 70
    8
  9
$HANDSEED
  5
20000
  9
$SURFTAB1
 70
    6
  9
$SURFTAB2
 70
    6
  9
$SURFTYPE
 70
    6
  9
$SURFU
 70
    6
  9
$SURFV
 70
    6
  9
$UCSBASE
  2

  9
$UCSNAME
  2

  9
$UCSORG
 10
0
 20
0
 30
0
  9
$UCSXDIR
 10
1
 20
0
 30
0
  9
$UCSYDIR
 10
0
 20
1
 30
0
  9
$UCSORTHOREF
  2

  9
$UCSORTHOVIEW
 70
    0
  9
$UCSORGTOP
 10
0
 20
0
 30
0
  9
$UCSORGBOTTOM
 10
0
 20
0
 30
0
  9
$UCSORGLEFT
 10
0
 20
0
 30
0
  9
$UCSORGRIGHT
 10
0
 20
0
 30
0
  9
$UCSORGFRONT
 10
0
 20
0
 30
0
  9
$UCSORGBACK
 10
0
 20
0
 30
0
  9
$PUCSBASE
  2

  9
$PUCSNAME
  2

  9
$PUCSORG
 10
0
 20
0
 30
0
  9
$PUCSXDIR
 10
1
 20
0
 30
0
  9
$PUCSYDIR
 10
0
 20
1
 30
0
  9
$PUCSORTHOREF
  2

  9
$PUCSORTHOVIEW
 70
    0
  9
$PUCSORGTOP
 10
0
 20
0
 30
0
  9
$PUCSORGBOTTOM
 10
0
 20
0
 30
0
  9
$PUCSORGLEFT
 10
0
 20
0
 30
0
  9
$PUCSORGRIGHT
 10
0
 20
0
 30
0
  9
$PUCSORGFRONT
 10
0
 20
0
 30
0
  9
$PUCSORGBACK
 10
0
 20
0
 30
0
  9
$USERI1
 70
    0
  9
$USERI2
 70
    0
  9
$USERI3
 70
    0
  9
$USERI4
 70
    0
  9
$USERI5
 70
    0
  9
$USERR1
 40
0
  9
$USERR2
 40
0
  9
$USERR3
 40
0
  9
$USERR4
 40
0
  9
$USERR5
 40
0
  9
$WORLDVIEW
 70
    1
  9
$SHADEDGE
 70
    3
  9
$SHADEDIF
 70
   70
  9
$TILEMODE
 70
    1
  9
$MAXACTVP
 70
   64
  9
$PINSBASE
 10
-96.09146275346257
 20
53.83839132277814
 30
0
  9
$PLIMCHECK
 70
    0
  9
$PEXTMIN
 10
0
 20
0
 30
0
  9
$PEXTMAX
 10
0
 20
0
 30
0
  9
$GRIDMODE
 70
    1
  9
$SNAPSTYLE
 70
    0
  9
$PLIMMIN
 10
0
 20
0
  9
$PLIMMAX
 10
210
 20
297
  9
$UNITMODE
 70
    0
  9
$VISRETAIN
 70
    1
  9
$PLINEGEN
 70
    0
  9
$PSLTSCALE
 70
    1
  9
$TREEDEPTH
 70
 3020
  9
$CMLSTYLE
  2
Standard
  9
$CMLJUST
 70
    0
  9
$CMLSCALE
 40
20
  9
$PROXYGRAPHICS
 70
    1
  9
$MEASUREMENT
 70
    1
  9
$CELWEIGHT
370
   -1
  9
$ENDCAPS
280
    0
  9
$JOINSTYLE
280
    0
  9
$LWDISPLAY
290
    0
  9
$INSUNITS
 70
    4
  9
$HYPERLINKBASE
  1

  9
$STYLESHEET
  1

  9
$XEDIT
290
    1
  9
$CEPSNTYPE
380
    0
  9
$PSTYLEMODE
290
    1
  9
$EXTNAMES
290
    1
  9
$PSVPSCALE
 40
1
  9
$OLESTARTUP
290
    0
  9
$SORTENTS
280
  127
  9
$INDEXCTL
280
    0
  9
$HIDETEXT
280
    1
  9
$XCLIPFRAME
290
    0
  9
$HALOGAP
280
    0
  9
$OBSCOLOR
 70
  257
  9
$OBSLTYPE
280
    0
  9
$INTERSECTIONDISPLAY
280
    0
  9
$INTERSECTIONCOLOR
 70
  257
  9
$DIMASSOC
280
    1
  9
$PROJECTNAME
  1

  9
$CAMERADISPLAY
290
    0
  9
$LENSLENGTH
 40
50
  9
$CAMERAHEIGHT
 40
0
  9
$STEPSPERSEC
 40
2
  9
$STEPSIZE
 40
50
  9
$3DDWFPREC
 40
2
  9
$PSOLWIDTH
 40
5
  9
$PSOLHEIGHT
 40
80
  9
$LOFTANG1
 40
1.570796326794897
  9
$LOFTANG2
 40
1.570796326794897
  9
$LOFTMAG1
 40
0
  9
$LOFTMAG2
 40
0
  9
$LOFTPARAM
 70
    7
  9
$LOFTNORMALS
280
    1
  9
$LATITUDE
 40
1
  9
$LONGITUDE
 40
1
  9
$NORTHDIRECTION
 40
0
  9
$TIMEZONE
 70
-8000
  9
$LIGHTGLYPHDISPLAY
280
    1
  9
$TILEMODELIGHTSYNCH
280
    1
  9
$SOLIDHIST
280
    1
  9
$SHOWHIST
280
    1
  9
$DWFFRAME
280
    2
  9
$DGNFRAME
280
    0
  9
$REALWORLDSCALE
290
    1
  9
$INTERFERECOLOR
 62
    1
  9
$CSHADOW
280
    0
  9
$SHADOWPLANELOCATION
 40
0
  0
ENDSEC
  0
SECTION
  2
CLASSES
  0
ENDSEC
  0
SECTION
  2
TABLES
  0
TABLE
  2
VPORT
  5
8
330
0
100
AcDbSymbolTable
 70
    1
  0
VPORT
  5
31
330
2
100
AcDbSymbolTableRecord
100
AcDbViewportTableRecord
  2
*ACTIVE
 70
    0
 10
0
 20
0
 11
1
 21
1
 12
236.7597680097682
 22
192.116910866911
 13
0
 23
0
 14
10
 24
10
 15
10
 25
10
 16
0
 26
0
 36
1
 17
0
 27
0
 37
0
 40
320.1312576312579
 41
1.698450536352801
 42
50
 43
0
 44
0
 50
0
 51
0
 71
    0
 72
  100
 73
    1
 74
    3
 75
    0
 76
    1
 77
    0
 78
    0
281
    0
 65
    1
110
0
120
0
130
0
111
1
121
0
131
0
112
0
122
1
132
0
 79
    0
146
0
348
10020
 60
    7
 61
    5
292
1
282
    1
141
0
142
0
 63
  250
421
3358443
  0
ENDTAB
  0
TABLE
  2
LTYPE
  5
5
330
0
100
AcDbSymbolTable
 70
    4
  0
LTYPE
  5
14
330
5
100
AcDbSymbolTableRecord
100
AcDbLinetypeTableRecord
  2
ByBlock
 70
    0
  3

 72
   65
 73
    0
 40
0
  0
LTYPE
  5
15
330
5
100
AcDbSymbolTableRecord
100
AcDbLinetypeTableRecord
  2
ByLayer
 70
    0
  3

 72
   65
 73
    0
 40
0
  0
LTYPE
  5
16
330
5
100
AcDbSymbolTableRecord
100
AcDbLinetypeTableRecord
  2
Continuous
 70
    0
  3
Solid line
 72
   65
 73
    0
 40
0
  0
LTYPE
  5
32
330
5
100
AcDbSymbolTableRecord
100
AcDbLinetypeTableRecord
  2
DOT
 70
    0
  3
Dot . . . . . . . . . . . . . . . . . . . . . .
 72
   65
 73
    2
 40
6.35
 49
0
 74
    0
 49
-6.35
 74
    0
  0
LTYPE
  5
33
330
5
100
AcDbSymbolTableRecord
100
AcDbLinetypeTableRecord
  2
DOTTINY
 70
    0
  3
Dot (.15x) .....................................
 72
   65
 73
    2
 40
0.9525
 49
0
 74
    0
 49
-0.9525
 74
    0
  0
LTYPE
  5
34
330
5
100
AcDbSymbolTableRecord
100
AcDbLinetypeTableRecord
  2
DOT2
 70
    0
  3
Dot (.5x) .....................................
 72
   65
 73
    2
 40
3.175
 49
0
 74
    0
 49
-3.175
 74
    0
  0
LTYPE
  5
35
330
5
100
AcDbSymbolTableRecord
100
AcDbLinetypeTableRecord
  2
DOTX2
 70
    0
  3
Dot (2x) .  .  .  .  .  .  .  .  .  .  .  .  .
 72
   65
 73
    2
 40
12.7
 49
0
 74
    0
 49
-12.7
 74
    0
  0
LTYPE
  5
36
330
5
100
AcDbSymbolTableRecord
100
AcDbLinetypeTableRecord
  2
DASHED
 70
    0
  3
Dashed _ _ _ _ _ _ _ _ _ _ _ _ _ _ _ _ _
 72
   65
 73
    2
 40
19.05
 49
12.7
 74
    0
 49
-6.35
 74
    0
  0
LTYPE
  5
37
330
5
100
AcDbSymbolTableRecord
100
AcDbLinetypeTableRecord
  2
DASHEDTINY
 70
    0
  3
Dashed (.15x) _ _ _ _ _ _ _ _ _ _ _ _ _ _ _ _ _
 72
   65
 73
    2
 40
2.8575
 49
1.905
 74
    0
 49
-0.9525
 74
    0
  0
LTYPE
  5
38
330
5
100
AcDbSymbolTableRecord
100
AcDbLinetypeTableRecord
  2
DASHED2
 70
    0
  3
Dashed (.5x) _ _ _ _ _ _ _ _ _ _ _ _ _ _ _ _ _
 72
   65
 73
    2
 40
9.524999999999999
 49
6.35
 74
    0
 49
-3.175
 74
    0
  0
LTYPE
  5
39
330
5
100
AcDbSymbolTableRecord
100
AcDbLinetypeTableRecord
  2
DASHEDX2
 70
    0
  3
Dashed (2x) ____  ____  ____  ____  ____  ___
 72
   65
 73
    2
 40
38.09999999999999
 49
25.4
 74
    0
 49
-12.7
 74
    0
  0
LTYPE
  5
3A
330
5
100
AcDbSymbolTableRecord
100
AcDbLinetypeTableRecord
  2
DASHDOT
 70
    0
  3
Dash dot __ . __ . __ . __ . __ . __ . __ . __
 72
   65
 73
    4
 40
25.4
 49
12.7
 74
    0
 49
-6.35
 74
    0
 49
0
 74
    0
 49
-6.35
 74
    0
  0
LTYPE
  5
3B
330
5
100
AcDbSymbolTableRecord
100
AcDbLinetypeTableRecord
  2
DASHDOTTINY
 70
    0
  3
Dash dot (.15x) _._._._._._._._._._._._._._._.
 72
   65
 73
    4
 40
3.81
 49
1.905
 74
    0
 49
-0.9525
 74
    0
 49
0
 74
    0
 49
-0.9525
 74
    0
  0
LTYPE
  5
3C
330
5
100
AcDbSymbolTableRecord
100
AcDbLinetypeTableRecord
  2
DASHDOT2
 70
    0
  3
Dash dot (.5x) _._._._._._._._._._._._._._._.
 72
   65
 73
    4
 40
12.7
 49
6.35
 74
    0
 49
-3.175
 74
    0
 49
0
 74
    0
 49
-3.175
 74
    0
  0
LTYPE
  5
3D
330
5
100
AcDbSymbolTableRecord
100
AcDbLinetypeTableRecord
  2
DASHDOTX2
 70
    0
  3
Dash dot (2x) ____  .  ____  .  ____  .  ___
 72
   65
 73
    4
 40
50.8
 49
25.4
 74
    0
 49
-12.7
 74
    0
 49
0
 74
    0
 49
-12.7
 74
    0
  0
LTYPE
  5
3E
330
5
100
AcDbSymbolTableRecord
100
AcDbLinetypeTableRecord
  2
DIVIDE
 70
    0
  3
Divide ____ . . ____ . . ____ . . ____ . . ____
 72
   65
 73
    6
 40
31.75
 49
12.7
 74
    0
 49
-6.35
 74
    0
 49
0
 74
    0
 49
-6.35
 74
    0
 49
0
 74
    0
 49
-6.35
 74
    0
  0
LTYPE
  5
3F
330
5
100
AcDbSymbolTableRecord
100
AcDbLinetypeTableRecord
  2
DIVIDETINY
 70
    0
  3
Divide (.15x) __..__..__..__..__..__..__..__.._
 72
   65
 73
    6
 40
4.7625
 49
1.905
 74
    0
 49
-0.9525
 74
    0
 49
0
 74
    0
 49
-0.9525
 74
    0
 49
0
 74
    0
 49
-0.9525
 74
    0
  0
LTYPE
  5
40
330
5
100
AcDbSymbolTableRecord
100
AcDbLinetypeTableRecord
  2
DIVIDE2
 70
    0
  3
Divide (.5x) __..__..__..__..__..__..__..__.._
 72
   65
 73
    6
 40
15.875
 49
6.35
 74
    0
 49
-3.175
 74
    0
 49
0
 74
    0
 49
-3.175
 74
    0
 49
0
 74
    0
 49
-3.175
 74
    0
  0
LTYPE
  5
41
330
5
100
AcDbSymbolTableRecord
100
AcDbLinetypeTableRecord
  2
DIVIDEX2
 70
    0
  3
Divide (2x) ________  .  .  ________  .  .  _
 72
   65
 73
    6
 40
63.5
 49
25.4
 74
    0
 49
-12.7
 74
    0
 49
0
 74
    0
 49
-12.7
 74
    0
 49
0
 74
    0
 49
-12.7
 74
    0
  0
LTYPE
  5
42
330
5
100
AcDbSymbolTableRecord
100
AcDbLinetypeTableRecord
  2
BORDER
 70
    0
  3
Border __ __ . __ __ . __ __ . __ __ . __ __ .
 72
   65
 73
    6
 40
44.45
 49
12.7
 74
    0
 49
-6.35
 74
    0
 49
12.7
 74
    0
 49
-6.35
 74
    0
 49
0
 74
    0
 49
-6.35
 74
    0
  0
LTYPE
  5
43
330
5
100
AcDbSymbolTableRecord
100
AcDbLinetypeTableRecord
  2
BORDERTINY
 70
    0
  3
Border (.15x) __.__.__.__.__.__.__.__.__.__.__.
 72
   65
 73
    6
 40
6.6675
 49
1.905
 74
    0
 49
-0.9525
 74
    0
 49
1.905
 74
    0
 49
-0.9525
 74
    0
 49
0
 74
    0
 49
-0.9525
 74
    0
  0
LTYPE
  5
44
330
5
100
AcDbSymbolTableRecord
100
AcDbLinetypeTableRecord
  2
BORDER2
 70
    0
  3
Border (.5x) __.__.__.__.__.__.__.__.__.__.__.
 72
   65
 73
    6
 40
22.225
 49
6.35
 74
    0
 49
-3.175
 74
    0
 49
6.35
 74
    0
 49
-3.175
 74
    0
 49
0
 74
    0
 49
-3.175
 74
    0
  0
LTYPE
  5
45
330
5
100
AcDbSymbolTableRecord
100
AcDbLinetypeTableRecord
  2
BORDERX2
 70
    0
  3
Border (2x) ____  ____  .  ____  ____  .  ___
 72
   65
 73
    6
 40
88.89999999999999
 49
25.4
 74
    0
 49
-12.7
 74
    0
 49
25.4
 74
    0
 49
-12.7
 74
    0
 49
0
 74
    0
 49
-12.7
 74
    0
  0
LTYPE
  5
46
330
5
100
AcDbSymbolTableRecord
100
AcDbLinetypeTableRecord
  2
CENTER
 70
    0
  3
Center ____ _ ____ _ ____ _ ____ _ ____ _ ____
 72
   65
 73
    4
 40
50.8
 49
31.75
 74
    0
 49
-6.35
 74
    0
 49
6.35
 74
    0
 49
-6.35
 74
    0
  0
LTYPE
  5
47
330
5
100
AcDbSymbolTableRecord
100
AcDbLinetypeTableRecord
  2
CENTERTINY
 70
    0
  3
Center (.15x) ___ _ ___ _ ___ _ ___ _ ___ _ ___
 72
   65
 73
    4
 40
7.62
 49
4.7625
 74
    0
 49
-0.9525
 74
    0
 49
0.9525
 74
    0
 49
-0.9525
 74
    0
  0
LTYPE
  5
48
330
5
100
AcDbSymbolTableRecord
100
AcDbLinetypeTableRecord
  2
CENTER2
 70
    0
  3
Center (.5x) ___ _ ___ _ ___ _ ___ _ ___ _ ___
 72
   65
 73
    4
 40
28.575
 49
19.05
 74
    0
 49
-3.175
 74
    0
 49
3.175
 74
    0
 49
-3.175
 74
    0
  0
LTYPE
  5
49
330
5
100
AcDbSymbolTableRecord
100
AcDbLinetypeTableRecord
  2
CENTERX2
 70
    0
  3
Center (2x) ________  __  ________  __  _____
 72
   65
 73
    4
 40
101.6
 49
63.5
 74
    0
 49
-12.7
 74
    0
 49
12.7
 74
    0
 49
-12.7
 74
    0
  0
ENDTAB
  0
TABLE
  2
LAYER
  5
2
330
0
100
AcDbSymbolTable
 70
    1
  0
LAYER
  5
10
330
2
100
AcDbSymbolTableRecord
100
AcDbLayerTableRecord
  2
0
 70
    5
 62
    7
  6
CONTINUOUS
370
    0
390
F
1001
LibreCad
1070
    1
  0
LAYER
  5
4A
330
2
100
AcDbSymbolTableRecord
100
AcDbLayerTableRecord
  2
Base Plate
 70
    0
 62
    5
  6
CONTINUOUS
370
    0
390
F
  0
LAYER
  5
4B
330
2
100
AcDbSymbolTableRecord
100
AcDbLayerTableRecord
  2
Shaft
 70
    0
 62
    1
  6
CONTINUOUS
370
    0
390
F
  0
LAYER
  5
4C
330
2
100
AcDbSymbolTableRecord
100
AcDbLayerTableRecord
  2
X Dims
 70
    1
 62
  136
420
32896
  6
CONTINUOUS
370
    0
390
F
  0
LAYER
  5
4D
330
2
100
AcDbSymbolTableRecord
100
AcDbLayerTableRecord
  2
X KP08 Holes
 70
    0
 62
    4
  6
CONTINUOUS
370
    0
390
F
  0
LAYER
  5
4E
330
2
100
AcDbSymbolTableRecord
100
AcDbLayerTableRecord
  2
X KP08 Holes Cen
 70
    0
 62
   56
420
8421376
  6
CONTINUOUS
370
    0
390
F
  0
LAYER
  5
4F
330
2
100
AcDbSymbolTableRecord
100
AcDbLayerTableRecord
  2
X Lead Screw
 70
    0
 62
    3
  6
CONTINUOUS
370
    0
390
F
  0
LAYER
  5
50
330
2
100
AcDbSymbolTableRecord
100
AcDbLayerTableRecord
  2
X Plate
 70
    0
 62
    4
  6
CONTINUOUS
370
    0
390
F
  0
LAYER
  5
51
330
2
100
AcDbSymbolTableRecord
100
AcDbLayerTableRecord
  2
X SCS8UU Holes
 70
    0
 62
    7
  6
CONTINUOUS
370
    0
390
F
  0
LAYER
  5
52
330
2
100
AcDbSymbolTableRecord
100
AcDbLayerTableRecord
  2
X SCS8UU HolesCen
 70
    0
 62
    2
  6
CONTINUOUS
370
    0
390
F
  0
LAYER
  5
53
330
2
100
AcDbSymbolTableRecord
100
AcDbLayerTableRecord
  2
X SH8A Holes
 70
    0
 62
  233
420
11885733
  6
CONTINUOUS
370
    0
390
F
  0
LAYER
  5
54
330
2
100
AcDbSymbolTableRecord
100
AcDbLayerTableRecord
  2
X SH8A Holes Cen
 70
    0
 62
    1
  6
CONTINUOUS
370
    0
390
F
  0
LAYER
  5
55
330
2
100
AcDbSymbolTableRecord
100
AcDbLayerTableRecord
  2
X Shafts
 70
    0
 62
    6
  6
CONTINUOUS
370
    0
390
F
  0
LAYER
  5
56
330
2
100
AcDbSymbolTableRecord
100
AcDbLayerTableRecord
  2
X Transm Holes
 70
    0
 62
    5
  6
CONTINUOUS
370
    0
390
F
  0
LAYER
  5
57
330
2
100
AcDbSymbolTableRecord
100
AcDbLayerTableRecord
  2
X Transm Holes Cen
 70
    0
 62
  216
420
8388736
  6
CONTINUOUS
370
    0
390
F
  0
LAYER
  5
58
330
2
100
AcDbSymbolTableRecord
100
AcDbLayerTableRecord
  2
Y Dims
 70
    1
 62
  136
420
32896
  6
CONTINUOUS
370
    0
390
F
  0
LAYER
  5
59
330
2
100
AcDbSymbolTableRecord
100
AcDbLayerTableRecord
  2
Y Plate
 70
    0
 62
    3
  6
CONTINUOUS
370
    0
390
F
  0
LAYER
  5
5A
330
2
100
AcDbSymbolTableRecord
100
AcDbLayerTableRecord
  2
Y SCS8UU Holes
 70
    0
 62
    8
  6
CONTINUOUS
370
    0
390
F
  0
LAYER
  5
5B
330
2
100
AcDbSymbolTableRecord
100
AcDbLayerTableRecord
  2
Y SCS8UU HolesCen
 70
    0
 62
   16
420
8388608
  6
CONTINUOUS
370
    0
390
F
  0
LAYER
  5
5C
330
2
100
AcDbSymbolTableRecord
100
AcDbLayerTableRecord
  2
Y Shafts
 70
    0
 62
    7
  6
CONTINUOUS
370
    0
390
F
  0
LAYER
  5
5D
330
2
100
AcDbSymbolTableRecord
100
AcDbLayerTableRecord
  2
Y Transm Holes
 70
    0
 62
   56
420
8421376
  6
CONTINUOUS
370
    0
390
F
  0
LAYER
  5
5E
330
2
100
AcDbSymbolTableRecord
100
AcDbLayerTableRecord
  2
Y Transm Holes Cen
 70
    0
 62
    2
  6
CONTINUOUS
370
    0
390
F
  0
ENDTAB
  0
TABLE
  2
STYLE
  5
3
330
0
100
AcDbSymbolTable
 70
    3
  0
STYLE
  5
5F
330
2
100
AcDbSymbolTableRecord
100
AcDbTextStyleTableRecord
  2
Standard
 70
    0
 40
0
 41
1
 50
0
 71
    0
 42
1
  3
txt
  4

  0
ENDTAB
  0
TABLE
  2
VIEW
  5
6
330
0
100
AcDbSymbolTable
 70
    0
  0
ENDTAB
  0
TABLE
  2
UCS
  5
7
330
0
100
AcDbSymbolTable
 70
    0
  0
ENDTAB
  0
TABLE
  2
APPID
  5
9
330
0
100
AcDbSymbolTable
 70
    1
  0
APPID
  5
12
330
9
100
AcDbSymbolTableRecord
100
AcDbRegAppTableRecord
  2
ACAD
 70
    0
  0
APPID
  5
60
330
9
100
AcDbSymbolTableRecord
100
AcDbRegAppTableRecord
  2
LibreCad
 70
    0
  0
ENDTAB
  0
TABLE
  2
DIMSTYLE
  5
A
330
0
100
AcDbSymbolTable
 70
    1
100
AcDbDimStyleTable
 71
    1
  0
DIMSTYLE
105
61
330
A
100
AcDbSymbolTableRecord
100
AcDbDimStyleTableRecord
  2
Standard
 70
    0
 40
1
 41
2.5
 42
0.625
 43
0.38
 44
1.25
 45
0
 46
0
 47
0
 48
0
 49
1
140
2.5
141
0.09
142
0
143
25.4
144
1
145
0
146
1
147
0.625
148
0
 71
    0
 72
    0
 73
    0
 74
    1
 75
    0
 76
    0
 77
    0
 78
    8
 79
    0
170
    0
171
    2
172
    0
173
    0
174
    0
175
    0
176
    0
177
    0
178
    0
179
    0
271
    2
272
    4
273
    2
274
    2
275
    0
276
    0
277
    2
278
   44
279
    0
280
    0
281
    0
282
    0
283
    1
284
    0
285
    0
286
    0
288
    0
289
    3
340
STANDARD
341

371
   -2
372
   -2
  0
ENDTAB
  0
TABLE
  2
BLOCK_RECORD
  5
1
330
0
100
AcDbSymbolTable
 70
    2
  0
BLOCK_RECORD
  5
1F
330
1
100
AcDbSymbolTableRecord
100
AcDbBlockTableRecord
  2
*Model_Space
 70
    0
280
    1
281
    0
  0
BLOCK_RECORD
  5
1E
330
1
100
AcDbSymbolTableRecord
100
AcDbBlockTableRecord
  2
*Paper_Space
 70
    0
280
    1
281
    0
  0
BLOCK_RECORD
  5
62
330
1
100
AcDbSymbolTableRecord
100
AcDbBlockTableRecord
  2
*D22
 70
    0
280
    1
281
    0
  0
BLOCK_RECORD
  5
65
330
1
100
AcDbSymbolTableRecord
100
AcDbBlockTableRecord
  2
*D4
 70
    0
280
    1
281
    0
  0
BLOCK_RECORD
  5
68
330
1
100
AcDbSymbolTableRecord
100
AcDbBlockTableRecord
  2
*D7
 70
    0
280
    1
281
    0
  0
BLOCK_RECORD
  5
6B
330
1
100
AcDbSymbolTableRecord
100
AcDbBlockTableRecord
  2
*D2
 70
    0
280
    1
281
    0
  0
BLOCK_RECORD
  5
6E
330
1
100
AcDbSymbolTableRecord
100
AcDbBlockTableRecord
  2
*D18
 70
    0
280
    1
281
    0
  0
BLOCK_RECORD
  5
71
330
1
100
AcDbSymbolTableRecord
100
AcDbBlockTableRecord
  2
*D9
 70
    0
280
    1
281
    0
  0
BLOCK_RECORD
  5
74
330
1
100
AcDbSymbolTableRecord
100
AcDbBlockTableRecord
  2
*D13
 70
    0
280
    1
281
    0
  0
BLOCK_RECORD
  5
77
330
1
100
AcDbSymbolTableRecord
100
AcDbBlockTableRecord
  2
*D3
 70
    0
280
    1
281
    0
  0
BLOCK_RECORD
  5
7A
330
1
100
AcDbSymbolTableRecord
100
AcDbBlockTableRecord
  2
*D16
 70
    0
280
    1
281
    0
  0
BLOCK_RECORD
  5
7D
330
1
100
AcDbSymbolTableRecord
100
AcDbBlockTableRecord
  2
*D20
 70
    0
280
    1
281
    0
  0
BLOCK_RECORD
  5
80
330
1
100
AcDbSymbolTableRecord
100
AcDbBlockTableRecord
  2
*D5
 70
    0
280
    1
281
    0
  0
BLOCK_RECORD
  5
83
330
1
100
AcDbSymbolTableRecord
100
AcDbBlockTableRecord
  2
*D17
 70
    0
280
    1
281
    0
  0
BLOCK_RECORD
  5
86
330
1
100
AcDbSymbolTableRecord
100
AcDbBlockTableRecord
  2
*D12
 70
    0
280
    1
281
    0
  0
BLOCK_RECORD
  5
89
330
1
100
AcDbSymbolTableRecord
100
AcDbBlockTableRecord
  2
*D21
 70
    0
280
    1
281
    0
  0
BLOCK_RECORD
  5
8C
330
1
100
AcDbSymbolTableRecord
100
AcDbBlockTableRecord
  2
*D6
 70
    0
280
    1
281
    0
  0
BLOCK_RECORD
  5
8F
330
1
100
AcDbSymbolTableRecord
100
AcDbBlockTableRecord
  2
*D8
 70
    0
280
    1
281
    0
  0
BLOCK_RECORD
  5
92
330
1
100
AcDbSymbolTableRecord
100
AcDbBlockTableRecord
  2
*D11
 70
    0
280
    1
281
    0
  0
BLOCK_RECORD
  5
95
330
1
100
AcDbSymbolTableRecord
100
AcDbBlockTableRecord
  2
*D1
 70
    0
280
    1
281
    0
  0
BLOCK_RECORD
  5
98
330
1
100
AcDbSymbolTableRecord
100
AcDbBlockTableRecord
  2
*D15
 70
    0
280
    1
281
    0
  0
BLOCK_RECORD
  5
9B
330
1
100
AcDbSymbolTableRecord
100
AcDbBlockTableRecord
  2
*D19
 70
    0
280
    1
281
    0
  0
BLOCK_RECORD
  5
9E
330
1
100
AcDbSymbolTableRecord
100
AcDbBlockTableRecord
  2
*D10
 70
    0
280
    1
281
    0
  0
BLOCK_RECORD
  5
A1
330
1
100
AcDbSymbolTableRecord
100
AcDbBlockTableRecord
  2
*D14
 70
    0
280
    1
281
    0
  0
BLOCK_RECORD
  5
A4
330
1
100
AcDbSymbolTableRecord
100
AcDbBlockTableRecord
  2
center
 70
    0
280
    1
281
    0
  0
BLOCK_RECORD
  5
A7
330
1
100
AcDbSymbolTableRecord
100
AcDbBlockTableRecord
  2
SCS8UU
 70
    0
280
    1
281
    0
  0
BLOCK_RECORD
  5
AA
330
1
100
AcDbSymbolTableRecord
100
AcDbBlockTableRecord
  2
hole
 70
    0
280
    1
281
    0
  0
BLOCK_RECORD
  5
AD
330
1
100
AcDbSymbolTableRecord
100
AcDbBlockTableRecord
  2
centr
 70
    0
280
    1
281
    0
  0
BLOCK_RECORD
  5
B0
330
1
100
AcDbSymbolTableRecord
100
AcDbBlockTableRecord
  2
cen
 70
    0
280
    1
281
    0
  0
BLOCK_RECORD
  5
B3
330
1
100
AcDbSymbolTableRecord
100
AcDbBlockTableRecord
  2
cen y trans
 70
    0
280
    1
281
    0
  0
ENDTAB
  0
ENDSEC
  0
SECTION
  2
BLOCKS
  0
BLOCK
  5
20
330
1F
100
AcDbEntity
  8
0
100
AcDbBlockBegin
  2
*Model_Space
 70
    0
 10
0
 20
0
 30
0
  3
*Model_Space
  1

  0
ENDBLK
  5
21
330
1F
100
AcDbEntity
  8
0
100
AcDbBlockEnd
  0
BLOCK
  5
1C
330
1B
100
AcDbEntity
  8
0
100
AcDbBlockBegin
  2
*Paper_Space
 70
    0
 10
0
 20
0
 30
0
  3
*Paper_Space
  1

  0
ENDBLK
  5
1D
330
1F
100
AcDbEntity
  8
0
100
AcDbBlockEnd
  0
BLOCK
  5
63
330
62
100
AcDbEntity
  8
0
100
AcDbBlockBegin
  2
*D22
 70
    1
 10
0
 20
0
  3
*D22
  1

  0
LINE
  5
B6
100
AcDbEntity
  8
Y Dims
  6
ByBlock
 62
    0
370
   -2
100
AcDbLine
 10
200
 20
160
 11
100
 21
160
  0
SOLID
  5
B7
100
AcDbEntity
  8
Y Dims
  6
ByBlock
 62
    0
370
   -2
100
AcDbTrace
 10
200
 20
160
 30
0
 11
197.5
 21
159.5837153422272
 31
0
 12
197.5
 22
160.4162846577728
 32
0
 13
197.5
 23
160.4162846577728
 33
0
  0
SOLID
  5
B8
100
AcDbEntity
  8
Y Dims
  6
ByBlock
 62
    0
370
   -2
100
AcDbTrace
 10
100
 20
160
 30
0
 11
102.5
 21
160.4162846577728
 31
0
 12
102.5
 22
159.5837153422272
 32
0
 13
102.5
 23
159.5837153422272
 33
0
  0
MTEXT
  5
B9
100
AcDbEntity
  8
Y Dims
  6
CONTINUOUS
 62
    0
370
   -2
100
AcDbMText
 10
150
 20
161.875
 30
0
 40
2.5
 41
4.444444444444445
 71
    5
 72
    1
  1
100
  7
STANDARD
210
0
220
0
230
1
 50
360
 73
    2
 44
1
  0
LINE
  5
BA
100
AcDbEntity
  8
Y Dims
  6
ByBlock
 62
    0
370
   -2
100
AcDbLine
 10
200
 20
179.375
 11
200
 21
158.75
  0
LINE
  5
BB
100
AcDbEntity
  8
Y Dims
  6
ByBlock
 62
    0
370
   -2
100
AcDbLine
 10
100
 20
180.0764020005631
 11
100
 21
158.75
  0
ENDBLK
  5
64
330
62
100
AcDbEntity
  8
0
100
AcDbBlockEnd
  0
BLOCK
  5
66
330
65
100
AcDbEntity
  8
0
100
AcDbBlockBegin
  2
*D4
 70
    1
 10
0
 20
0
  3
*D4
  1

  0
LINE
  5
BC
100
AcDbEntity
  8
X Dims
  6
ByBlock
 62
    0
370
   -2
100
AcDbLine
 10
111
 20
280
 11
111
 21
262
  0
SOLID
  5
BD
100
AcDbEntity
  8
X Dims
  6
ByBlock
 62
    0
370
   -2
100
AcDbTrace
 10
111
 20
280
 30
0
 11
111.4162846577728
 21
277.5
 31
0
 12
110.5837153422272
 22
277.5
 32
0
 13
110.5837153422272
 23
277.5
 33
0
  0
SOLID
  5
BE
100
AcDbEntity
  8
X Dims
  6
ByBlock
 62
    0
370
   -2
100
AcDbTrace
 10
111
 20
262
 30
0
 11
110.5837153422272
 21
264.5
 31
0
 12
111.4162846577728
 22
264.5
 32
0
 13
111.4162846577728
 23
264.5
 33
0
  0
MTEXT
  5
BF
100
AcDbEntity
  8
X Dims
  6
CONTINUOUS
 62
    0
370
   -2
100
AcDbMText
 10
109.125
 20
271
 30
0
 40
2.5
 41
2.5
 71
    5
 72
    1
  1
18
  7
STANDARD
210
0
220
0
230
1
 50
90
 73
    2
 44
1
  0
LINE
  5
C0
100
AcDbEntity
  8
X Dims
  6
ByBlock
 62
    0
370
   -2
100
AcDbLine
 10
119.375
 20
280
 11
109.75
 21
280
  0
LINE
  5
C1
100
AcDbEntity
  8
X Dims
  6
ByBlock
 62
    0
370
   -2
100
AcDbLine
 10
119.375
 20
262
 11
109.75
 21
262
  0
ENDBLK
  5
67
330
65
100
AcDbEntity
  8
0
100
AcDbBlockEnd
  0
BLOCK
  5
69
330
68
100
AcDbEntity
  8
0
100
AcDbBlockBegin
  2
*D7
 70
    1
 10
0
 20
0
  3
*D7
  1

  0
SOLID
  5
C2
100
AcDbEntity
  8
X Dims
  6
ByBlock
 62
    0
370
   -2
100
AcDbTrace
 10
145.6641005886757
 20
263.1094003924505
 30
0
 11
147.5133131431681
 21
264.8425206550418
 31
0
 12
147.9751395058724
 22
264.1497811109854
 32
0
 13
147.9751395058724
 23
264.1497811109854
 33
0
  0
LINE
  5
C3
100
AcDbEntity
  8
X Dims
  6
ByBlock
 62
    0
370
   -2
100
AcDbLine
 10
144
 20
262
 11
150.7488523874069
 21
266.499234924938
  0
MTEXT
  5
C4
100
AcDbEntity
  8
X Dims
  6
CONTINUOUS
 62
    0
370
   -2
100
AcDbMText
 10
150.7488523874069
 20
268.752704472103
 30
0
 40
2.5
 41
1.111111111111111
 71
    5
 72
    1
  1
2
  7
STANDARD
210
0
220
0
230
1
 50
33.69006752598024
 73
    2
 44
1
  0
ENDBLK
  5
6A
330
68
100
AcDbEntity
  8
0
100
AcDbBlockEnd
  0
BLOCK
  5
6C
330
6B
100
AcDbEntity
  8
0
100
AcDbBlockBegin
  2
*D2
 70
    1
 10
0
 20
0
  3
*D2
  1

  0
LINE
  5
C5
100
AcDbEntity
  8
X Dims
  6
ByBlock
 62
    0
370
   -2
100
AcDbLine
 10
80
 20
300
 11
80
 21
100
  0
SOLID
  5
C6
100
AcDbEntity
  8
X Dims
  6
ByBlock
 62
    0
370
   -2
100
AcDbTrace
 10
80
 20
300
 30
0
 11
80.41628465777283
 21
297.5
 31
0
 12
79.58371534222717
 22
297.5
 32
0
 13
79.58371534222717
 23
297.5
 33
0
  0
SOLID
  5
C7
100
AcDbEntity
  8
X Dims
  6
ByBlock
 62
    0
370
   -2
100
AcDbTrace
 10
80
 20
100
 30
0
 11
79.58371534222717
 21
102.5
 31
0
 12
80.41628465777283
 22
102.5
 32
0
 13
80.41628465777283
 23
102.5
 33
0
  0
MTEXT
  5
C8
100
AcDbEntity
  8
X Dims
  6
CONTINUOUS
 62
    0
370
   -2
100
AcDbMText
 10
78.125
 20
200
 30
0
 40
2.5
 41
5
 71
    5
 72
    1
  1
200
  7
STANDARD
210
0
220
0
230
1
 50
90
 73
    2
 44
1
  0
LINE
  5
C9
100
AcDbEntity
  8
X Dims
  6
ByBlock
 62
    0
370
   -2
100
AcDbLine
 10
99.375
 20
300
 11
78.75
 21
300
  0
LINE
  5
CA
100
AcDbEntity
  8
X Dims
  6
ByBlock
 62
    0
370
   -2
100
AcDbLine
 10
99.375
 20
100
 11
78.75
 21
100
  0
ENDBLK
  5
6D
330
6B
100
AcDbEntity
  8
0
100
AcDbBlockEnd
  0
BLOCK
  5
6F
330
6E
100
AcDbEntity
  8
0
100
AcDbBlockBegin
  2
*D18
 70
    1
 10
0
 20
0
  3
*D18
  1

  0
LINE
  5
CB
100
AcDbEntity
  8
Y Dims
  6
ByBlock
 62
    0
370
   -2
100
AcDbLine
 10
116
 20
410
 11
100
 21
410
  0
SOLID
  5
CC
100
AcDbEntity
  8
Y Dims
  6
ByBlock
 62
    0
370
   -2
100
AcDbTrace
 10
116
 20
410
 30
0
 11
113.5
 21
409.5837153422272
 31
0
 12
113.5
 22
410.4162846577728
 32
0
 13
113.5
 23
410.4162846577728
 33
0
  0
SOLID
  5
CD
100
AcDbEntity
  8
Y Dims
  6
ByBlock
 62
    0
370
   -2
100
AcDbTrace
 10
100
 20
410
 30
0
 11
102.5
 21
410.4162846577728
 31
0
 12
102.5
 22
409.5837153422272
 32
0
 13
102.5
 23
409.5837153422272
 33
0
  0
MTEXT
  5
CE
100
AcDbEntity
  8
Y Dims
  6
CONTINUOUS
 62
    0
370
   -2
100
AcDbMText
 10
108
 20
411.875
 30
0
 40
2.5
 41
2.500000000000155
 71
    5
 72
    1
  1
16
  7
STANDARD
210
0
220
0
230
1
 50
360
 73
    2
 44
1
  0
LINE
  5
CF
100
AcDbEntity
  8
Y Dims
  6
ByBlock
 62
    0
370
   -2
100
AcDbLine
 10
116
 20
390.625
 11
116
 21
411.25
  0
LINE
  5
D0
100
AcDbEntity
  8
Y Dims
  6
ByBlock
 62
    0
370
   -2
100
AcDbLine
 10
100
 20
390.4627033592033
 11
100
 21
411.25
  0
ENDBLK
  5
70
330
6E
100
AcDbEntity
  8
0
100
AcDbBlockEnd
  0
BLOCK
  5
72
330
71
100
AcDbEntity
  8
0
100
AcDbBlockBegin
  2
*D9
 70
    1
 10
0
 20
0
  3
*D9
  1

  0
LINE
  5
D1
100
AcDbEntity
  8
X Dims
  6
ByBlock
 62
    0
370
   -2
100
AcDbLine
 10
100
 20
210
 11
180
 21
210
  0
SOLID
  5
D2
100
AcDbEntity
  8
X Dims
  6
ByBlock
 62
    0
370
   -2
100
AcDbTrace
 10
100
 20
210
 30
0
 11
102.5
 21
210.4162846577728
 31
0
 12
102.5
 22
209.5837153422272
 32
0
 13
102.5
 23
209.5837153422272
 33
0
  0
SOLID
  5
D3
100
AcDbEntity
  8
X Dims
  6
ByBlock
 62
    0
370
   -2
100
AcDbTrace
 10
180
 20
210
 30
0
 11
177.5
 21
209.5837153422272
 31
0
 12
177.5
 22
210.4162846577728
 32
0
 13
177.5
 23
210.4162846577728
 33
0
  0
MTEXT
  5
D4
100
AcDbEntity
  8
X Dims
  6
CONTINUOUS
 62
    0
370
   -2
100
AcDbMText
 10
140
 20
211.875
 30
0
 40
2.5
 41
3.055555555555556
 71
    5
 72
    1
  1
80
  7
STANDARD
210
0
220
0
230
1
 50
0
 73
    2
 44
1
  0
LINE
  5
D5
100
AcDbEntity
  8
X Dims
  6
ByBlock
 62
    0
370
   -2
100
AcDbLine
 10
100
 20
200.625
 11
100
 21
211.25
  0
LINE
  5
D6
100
AcDbEntity
  8
X Dims
  6
ByBlock
 62
    0
370
   -2
100
AcDbLine
 10
180
 20
200.625
 11
180
 21
211.25
  0
ENDBLK
  5
73
330
71
100
AcDbEntity
  8
0
100
AcDbBlockEnd
  0
BLOCK
  5
75
330
74
100
AcDbEntity
  8
0
100
AcDbBlockBegin
  2
*D13
 70
    1
 10
0
 20
0
  3
*D13
  1

  0
LINE
  5
D7
100
AcDbEntity
  8
Y Dims
  6
ByBlock
 62
    0
370
   -2
100
AcDbLine
 10
100
 20
420
 11
300
 21
420
  0
SOLID
  5
D8
100
AcDbEntity
  8
Y Dims
  6
ByBlock
 62
    0
370
   -2
100
AcDbTrace
 10
100
 20
420
 30
0
 11
102.5
 21
420.4162846577728
 31
0
 12
102.5
 22
419.5837153422272
 32
0
 13
102.5
 23
419.5837153422272
 33
0
  0
SOLID
  5
D9
100
AcDbEntity
  8
Y Dims
  6
ByBlock
 62
    0
370
   -2
100
AcDbTrace
 10
300
 20
420
 30
0
 11
297.5
 21
419.5837153422272
 31
0
 12
297.5
 22
420.4162846577728
 32
0
 13
297.5
 23
420.4162846577728
 33
0
  0
MTEXT
  5
DA
100
AcDbEntity
  8
Y Dims
  6
CONTINUOUS
 62
    0
370
   -2
100
AcDbMText
 10
200
 20
421.875
 30
0
 40
2.5
 41
5
 71
    5
 72
    1
  1
200
  7
STANDARD
210
0
220
0
230
1
 50
0
 73
    2
 44
1
  0
LINE
  5
DB
100
AcDbEntity
  8
Y Dims
  6
ByBlock
 62
    0
370
   -2
100
AcDbLine
 10
100
 20
400.625
 11
100
 21
421.25
  0
LINE
  5
DC
100
AcDbEntity
  8
Y Dims
  6
ByBlock
 62
    0
370
   -2
100
AcDbLine
 10
300
 20
400.625
 11
300
 21
421.25
  0
ENDBLK
  5
76
330
74
100
AcDbEntity
  8
0
100
AcDbBlockEnd
  0
BLOCK
  5
78
330
77
100
AcDbEntity
  8
0
100
AcDbBlockBegin
  2
*D3
 70
    1
 10
0
 20
0
  3
*D3
  1

  0
LINE
  5
DD
100
AcDbEntity
  8
X Dims
  6
ByBlock
 62
    0
370
   -2
100
AcDbLine
 10
120
 20
290
 11
144
 21
290
  0
SOLID
  5
DE
100
AcDbEntity
  8
X Dims
  6
ByBlock
 62
    0
370
   -2
100
AcDbTrace
 10
120
 20
290
 30
0
 11
122.5
 21
290.4162846577728
 31
0
 12
122.5
 22
289.5837153422272
 32
0
 13
122.5
 23
289.5837153422272
 33
0
  0
SOLID
  5
DF
100
AcDbEntity
  8
X Dims
  6
ByBlock
 62
    0
370
   -2
100
AcDbTrace
 10
144
 20
290
 30
0
 11
141.5
 21
289.5837153422272
 31
0
 12
141.5
 22
290.4162846577728
 32
0
 13
141.5
 23
290.4162846577728
 33
0
  0
MTEXT
  5
E0
100
AcDbEntity
  8
X Dims
  6
CONTINUOUS
 62
    0
370
   -2
100
AcDbMText
 10
132
 20
291.875
 30
0
 40
2.5
 41
3.333333333333333
 71
    5
 72
    1
  1
24
  7
STANDARD
210
0
220
0
230
1
 50
0
 73
    2
 44
1
  0
LINE
  5
E1
100
AcDbEntity
  8
X Dims
  6
ByBlock
 62
    0
370
   -2
100
AcDbLine
 10
120
 20
280.625
 11
120
 21
291.25
  0
LINE
  5
E2
100
AcDbEntity
  8
X Dims
  6
ByBlock
 62
    0
370
   -2
100
AcDbLine
 10
144
 20
280.625
 11
144
 21
291.25
  0
ENDBLK
  5
79
330
77
100
AcDbEntity
  8
0
100
AcDbBlockEnd
  0
BLOCK
  5
7B
330
7A
100
AcDbEntity
  8
0
100
AcDbBlockBegin
  2
*D16
 70
    1
 10
0
 20
0
  3
*D16
  1

  0
LINE
  5
E3
100
AcDbEntity
  8
Y Dims
  6
ByBlock
 62
    0
370
   -2
100
AcDbLine
 10
110
 20
356
 11
110
 21
380
  0
SOLID
  5
E4
100
AcDbEntity
  8
Y Dims
  6
ByBlock
 62
    0
370
   -2
100
AcDbTrace
 10
110
 20
356
 30
0
 11
109.5837153422272
 21
358.5
 31
0
 12
110.4162846577728
 22
358.5
 32
0
 13
110.4162846577728
 23
358.5
 33
0
  0
SOLID
  5
E5
100
AcDbEntity
  8
Y Dims
  6
ByBlock
 62
    0
370
   -2
100
AcDbTrace
 10
110
 20
380
 30
0
 11
110.4162846577728
 21
377.5
 31
0
 12
109.5837153422272
 22
377.5
 32
0
 13
109.5837153422272
 23
377.5
 33
0
  0
MTEXT
  5
E6
100
AcDbEntity
  8
Y Dims
  6
CONTINUOUS
 62
    0
370
   -2
100
AcDbMText
 10
108.125
 20
368
 30
0
 40
2.5
 41
3.333333333333333
 71
    5
 72
    1
  1
24
  7
STANDARD
210
0
220
0
230
1
 50
90
 73
    2
 44
1
  0
LINE
  5
E7
100
AcDbEntity
  8
Y Dims
  6
ByBlock
 62
    0
370
   -2
100
AcDbLine
 10
119.375
 20
356
 11
108.75
 21
356
  0
LINE
  5
E8
100
AcDbEntity
  8
Y Dims
  6
ByBlock
 62
    0
370
   -2
100
AcDbLine
 10
119.375
 20
380
 11
108.75
 21
380
  0
ENDBLK
  5
7C
330
7A
100
AcDbEntity
  8
0
100
AcDbBlockEnd
  0
BLOCK
  5
7E
330
7D
100
AcDbEntity
  8
0
100
AcDbBlockBegin
  2
*D20
 70
    1
 10
0
 20
0
  3
*D20
  1

  0
LINE
  5
E9
100
AcDbEntity
  8
Y Dims
  6
ByBlock
 62
    0
370
   -2
100
AcDbLine
 10
180
 20
180
 11
180
 21
220
  0
SOLID
  5
EA
100
AcDbEntity
  8
Y Dims
  6
ByBlock
 62
    0
370
   -2
100
AcDbTrace
 10
180
 20
180
 30
0
 11
179.5837153422272
 21
182.5
 31
0
 12
180.4162846577728
 22
182.5
 32
0
 13
180.4162846577728
 23
182.5
 33
0
  0
SOLID
  5
EB
100
AcDbEntity
  8
Y Dims
  6
ByBlock
 62
    0
370
   -2
100
AcDbTrace
 10
180
 20
220
 30
0
 11
180.4162846577728
 21
217.5
 31
0
 12
179.5837153422272
 22
217.5
 32
0
 13
179.5837153422272
 23
217.5
 33
0
  0
MTEXT
  5
EC
100
AcDbEntity
  8
Y Dims
  6
CONTINUOUS
 62
    0
370
   -2
100
AcDbMText
 10
178.125
 20
200
 30
0
 40
2.5
 41
3.333333333333333
 71
    5
 72
    1
  1
40
  7
STANDARD
210
0
220
0
230
1
 50
90
 73
    2
 44
1
  0
LINE
  5
ED
100
AcDbEntity
  8
Y Dims
  6
ByBlock
 62
    0
370
   -2
100
AcDbLine
 10
199.375
 20
180
 11
178.75
 21
180
  0
LINE
  5
EE
100
AcDbEntity
  8
Y Dims
  6
ByBlock
 62
    0
370
   -2
100
AcDbLine
 10
199.375
 20
220
 11
178.75
 21
220
  0
ENDBLK
  5
7F
330
7D
100
AcDbEntity
  8
0
100
AcDbBlockEnd
  0
BLOCK
  5
81
330
80
100
AcDbEntity
  8
0
100
AcDbBlockBegin
  2
*D5
 70
    1
 10
0
 20
0
  3
*D5
  1

  0
LINE
  5
EF
100
AcDbEntity
  8
X Dims
  6
ByBlock
 62
    0
370
   -2
100
AcDbLine
 10
111
 20
280
 11
111
 21
300
  0
SOLID
  5
F0
100
AcDbEntity
  8
X Dims
  6
ByBlock
 62
    0
370
   -2
100
AcDbTrace
 10
111
 20
280
 30
0
 11
110.5837153422272
 21
282.5
 31
0
 12
111.4162846577728
 22
282.5
 32
0
 13
111.4162846577728
 23
282.5
 33
0
  0
SOLID
  5
F1
100
AcDbEntity
  8
X Dims
  6
ByBlock
 62
    0
370
   -2
100
AcDbTrace
 10
111
 20
300
 30
0
 11
111.4162846577728
 21
297.5
 31
0
 12
110.5837153422272
 22
297.5
 32
0
 13
110.5837153422272
 23
297.5
 33
0
  0
MTEXT
  5
F2
100
AcDbEntity
  8
X Dims
  6
CONTINUOUS
 62
    0
370
   -2
100
AcDbMText
 10
109.125
 20
290
 30
0
 40
2.5
 41
3.055555555555556
 71
    5
 72
    1
  1
20
  7
STANDARD
210
0
220
0
230
1
 50
90
 73
    2
 44
1
  0
LINE
  5
F3
100
AcDbEntity
  8
X Dims
  6
ByBlock
 62
    0
370
   -2
100
AcDbLine
 10
119.375
 20
280
 11
109.75
 21
280
  0
LINE
  5
F4
100
AcDbEntity
  8
X Dims
  6
ByBlock
 62
    0
370
   -2
100
AcDbLine
 10
119.4596369261841
 20
300
 11
109.75
 21
300
  0
ENDBLK
  5
82
330
80
100
AcDbEntity
  8
0
100
AcDbBlockEnd
  0
BLOCK
  5
84
330
83
100
AcDbEntity
  8
0
100
AcDbBlockBegin
  2
*D17
 70
    1
 10
0
 20
0
  3
*D17
  1

  0
LINE
  5
F5
100
AcDbEntity
  8
Y Dims
  6
ByBlock
 62
    0
370
   -2
100
AcDbLine
 10
131.4296584041545
 20
380
 11
131.4296584041545
 21
400
  0
SOLID
  5
F6
100
AcDbEntity
  8
Y Dims
  6
ByBlock
 62
    0
370
   -2
100
AcDbTrace
 10
131.4296584041545
 20
380
 30
0
 11
131.0133737463817
 21
382.5
 31
0
 12
131.8459430619274
 22
382.5
 32
0
 13
131.8459430619274
 23
382.5
 33
0
  0
SOLID
  5
F7
100
AcDbEntity
  8
Y Dims
  6
ByBlock
 62
    0
370
   -2
100
AcDbTrace
 10
131.4296584041545
 20
400
 30
0
 11
131.8459430619274
 21
397.5
 31
0
 12
131.0133737463817
 22
397.5
 32
0
 13
131.0133737463817
 23
397.5
 33
0
  0
MTEXT
  5
F8
100
AcDbEntity
  8
Y Dims
  6
CONTINUOUS
 62
    0
370
   -2
100
AcDbMText
 10
129.5546584041545
 20
390
 30
0
 40
2.5
 41
3.055555555555556
 71
    5
 72
    1
  1
20
  7
STANDARD
210
0
220
0
230
1
 50
90
 73
    2
 44
1
  0
LINE
  5
F9
100
AcDbEntity
  8
Y Dims
  6
ByBlock
 62
    0
370
   -2
100
AcDbLine
 10
137.375
 20
380
 11
130.1796584041545
 21
380
  0
LINE
  5
FA
100
AcDbEntity
  8
Y Dims
  6
ByBlock
 62
    0
370
   -2
100
AcDbLine
 10
137.3644274510641
 20
400
 11
130.1796584041545
 21
400
  0
ENDBLK
  5
85
330
83
100
AcDbEntity
  8
0
100
AcDbBlockEnd
  0
BLOCK
  5
87
330
86
100
AcDbEntity
  8
0
100
AcDbBlockBegin
  2
*D12
 70
    1
 10
0
 20
0
  3
*D12
  1

  0
LINE
  5
FB
100
AcDbEntity
  8
Y Dims
  6
ByBlock
 62
    0
370
   -2
100
AcDbLine
 10
80
 20
0
 11
80
 21
400
  0
SOLID
  5
FC
100
AcDbEntity
  8
Y Dims
  6
ByBlock
 62
    0
370
   -2
100
AcDbTrace
 10
80
 20
0
 30
0
 11
79.58371534222717
 21
2.5
 31
0
 12
80.41628465777283
 22
2.5
 32
0
 13
80.41628465777283
 23
2.5
 33
0
  0
SOLID
  5
FD
100
AcDbEntity
  8
Y Dims
  6
ByBlock
 62
    0
370
   -2
100
AcDbTrace
 10
80
 20
400
 30
0
 11
80.41628465777283
 21
397.5
 31
0
 12
79.58371534222717
 22
397.5
 32
0
 13
79.58371534222717
 23
397.5
 33
0
  0
MTEXT
  5
FE
100
AcDbEntity
  8
Y Dims
  6
CONTINUOUS
 62
    0
370
   -2
100
AcDbMText
 10
78.125
 20
200
 30
0
 40
2.5
 41
5.277777777777778
 71
    5
 72
    1
  1
400
  7
STANDARD
210
0
220
0
230
1
 50
90
 73
    2
 44
1
  0
LINE
  5
FF
100
AcDbEntity
  8
Y Dims
  6
ByBlock
 62
    0
370
   -2
100
AcDbLine
 10
99.375
 20
7.653789711389858e-017
 11
78.75
 21
1.530757942277972e-016
  0
LINE
  5
100
100
AcDbEntity
  8
Y Dims
  6
ByBlock
 62
    0
370
   -2
100
AcDbLine
 10
99.375
 20
400
 11
78.75
 21
400
  0
ENDBLK
  5
88
330
86
100
AcDbEntity
  8
0
100
AcDbBlockEnd
  0
BLOCK
  5
8A
330
89
100
AcDbEntity
  8
0
100
AcDbBlockBegin
  2
*D21
 70
    1
 10
0
 20
0
  3
*D21
  1

  0
LINE
  5
101
100
AcDbEntity
  8
Y Dims
  6
ByBlock
 62
    0
370
   -2
100
AcDbLine
 10
180
 20
220
 11
180
 21
400
  0
SOLID
  5
102
100
AcDbEntity
  8
Y Dims
  6
ByBlock
 62
    0
370
   -2
100
AcDbTrace
 10
180
 20
220
 30
0
 11
179.5837153422272
 21
222.5
 31
0
 12
180.4162846577728
 22
222.5
 32
0
 13
180.4162846577728
 23
222.5
 33
0
  0
SOLID
  5
103
100
AcDbEntity
  8
Y Dims
  6
ByBlock
 62
    0
370
   -2
100
AcDbTrace
 10
180
 20
400
 30
0
 11
180.4162846577728
 21
397.5
 31
0
 12
179.5837153422272
 22
397.5
 32
0
 13
179.5837153422272
 23
397.5
 33
0
  0
MTEXT
  5
104
100
AcDbEntity
  8
Y Dims
  6
CONTINUOUS
 62
    0
370
   -2
100
AcDbMText
 10
178.125
 20
310
 30
0
 40
2.5
 41
4.444444444444445
 71
    5
 72
    1
  1
180
  7
STANDARD
210
0
220
0
230
1
 50
90
 73
    2
 44
1
  0
LINE
  5
105
100
AcDbEntity
  8
Y Dims
  6
ByBlock
 62
    0
370
   -2
100
AcDbLine
 10
199.375
 20
220
 11
178.75
 21
220
  0
LINE
  5
106
100
AcDbEntity
  8
Y Dims
  6
ByBlock
 62
    0
370
   -2
100
AcDbLine
 10
199.375
 20
400
 11
178.75
 21
400
  0
ENDBLK
  5
8B
330
89
100
AcDbEntity
  8
0
100
AcDbBlockEnd
  0
BLOCK
  5
8D
330
8C
100
AcDbEntity
  8
0
100
AcDbBlockBegin
  2
*D6
 70
    1
 10
0
 20
0
  3
*D6
  1

  0
LINE
  5
107
100
AcDbEntity
  8
X Dims
  6
ByBlock
 62
    0
370
   -2
100
AcDbLine
 10
120
 20
250.2625946284915
 11
100
 21
250.2625946284915
  0
SOLID
  5
108
100
AcDbEntity
  8
X Dims
  6
ByBlock
 62
    0
370
   -2
100
AcDbTrace
 10
120
 20
250.2625946284915
 30
0
 11
117.5
 21
249.8463099707187
 31
0
 12
117.5
 22
250.6788792862644
 32
0
 13
117.5
 23
250.6788792862644
 33
0
  0
SOLID
  5
109
100
AcDbEntity
  8
X Dims
  6
ByBlock
 62
    0
370
   -2
100
AcDbTrace
 10
100
 20
250.2625946284915
 30
0
 11
102.5
 21
250.6788792862644
 31
0
 12
102.5
 22
249.8463099707187
 32
0
 13
102.5
 23
249.8463099707187
 33
0
  0
MTEXT
  5
10A
100
AcDbEntity
  8
X Dims
  6
CONTINUOUS
 62
    0
370
   -2
100
AcDbMText
 10
110
 20
252.1375946284915
 30
0
 40
2.5
 41
3.055555555555556
 71
    5
 72
    1
  1
20
  7
STANDARD
210
0
220
0
230
1
 50
360
 73
    2
 44
1
  0
LINE
  5
10B
100
AcDbEntity
  8
X Dims
  6
ByBlock
 62
    0
370
   -2
100
AcDbLine
 10
120
 20
261.375
 11
120
 21
249.0125946284915
  0
LINE
  5
10C
100
AcDbEntity
  8
X Dims
  6
ByBlock
 62
    0
370
   -2
100
AcDbLine
 10
100
 20
261.370001684498
 11
100
 21
249.0125946284915
  0
ENDBLK
  5
8E
330
8C
100
AcDbEntity
  8
0
100
AcDbBlockEnd
  0
BLOCK
  5
90
330
8F
100
AcDbEntity
  8
0
100
AcDbBlockBegin
  2
*D8
 70
    1
 10
0
 20
0
  3
*D8
  1

  0
SOLID
  5
10D
100
AcDbEntity
  8
X Dims
  6
ByBlock
 62
    0
370
   -2
100
AcDbTrace
 10
221.4142135623731
 20
201.4142135623731
 30
0
 11
222.8876228109244
 21
203.4763382197546
 31
0
 12
223.4763382197546
 22
202.8876228109244
 32
0
 13
223.4763382197546
 23
202.8876228109244
 33
0
  0
LINE
  5
10E
100
AcDbEntity
  8
X Dims
  6
ByBlock
 62
    0
370
   -2
100
AcDbLine
 10
220
 20
200
 11
225.7354216696242
 21
205.7354216696242
  0
MTEXT
  5
10F
100
AcDbEntity
  8
X Dims
  6
CONTINUOUS
 62
    0
370
   -2
100
AcDbMText
 10
225.2934799313826
 20
207.9451303608322
 30
0
 40
2.5
 41
1.111111111111111
 71
    5
 72
    1
  1
2
  7
STANDARD
210
0
220
0
230
1
 50
45
 73
    2
 44
1
  0
ENDBLK
  5
91
330
8F
100
AcDbEntity
  8
0
100
AcDbBlockEnd
  0
BLOCK
  5
93
330
92
100
AcDbEntity
  8
0
100
AcDbBlockBegin
  2
*D11
 70
    1
 10
0
 20
0
  3
*D11
  1

  0
LINE
  5
110
100
AcDbEntity
  8
X Dims
  6
ByBlock
 62
    0
370
   -2
100
AcDbLine
 10
169.7654711940541
 20
200
 11
169.7654711940541
 21
100
  0
SOLID
  5
111
100
AcDbEntity
  8
X Dims
  6
ByBlock
 62
    0
370
   -2
100
AcDbTrace
 10
169.7654711940541
 20
200
 30
0
 11
170.1817558518269
 21
197.5
 31
0
 12
169.3491865362813
 22
197.5
 32
0
 13
169.3491865362813
 23
197.5
 33
0
  0
SOLID
  5
112
100
AcDbEntity
  8
X Dims
  6
ByBlock
 62
    0
370
   -2
100
AcDbTrace
 10
169.7654711940541
 20
100
 30
0
 11
169.3491865362813
 21
102.5
 31
0
 12
170.1817558518269
 22
102.5
 32
0
 13
170.1817558518269
 23
102.5
 33
0
  0
MTEXT
  5
113
100
AcDbEntity
  8
X Dims
  6
CONTINUOUS
 62
    0
370
   -2
100
AcDbMText
 10
167.8904711940541
 20
150
 30
0
 40
2.5
 41
4.444444444444445
 71
    5
 72
    1
  1
100
  7
STANDARD
210
0
220
0
230
1
 50
90
 73
    2
 44
1
  0
LINE
  5
114
100
AcDbEntity
  8
X Dims
  6
ByBlock
 62
    0
370
   -2
100
AcDbLine
 10
179.375
 20
200
 11
168.5154711940541
 21
200
  0
LINE
  5
115
100
AcDbEntity
  8
X Dims
  6
ByBlock
 62
    0
370
   -2
100
AcDbLine
 10
179.7313446263437
 20
100
 11
168.5154711940541
 21
100
  0
ENDBLK
  5
94
330
92
100
AcDbEntity
  8
0
100
AcDbBlockEnd
  0
BLOCK
  5
96
330
95
100
AcDbEntity
  8
0
100
AcDbBlockBegin
  2
*D1
 70
    1
 10
0
 20
0
  3
*D1
  1

  0
LINE
  5
116
100
AcDbEntity
  8
X Dims
  6
ByBlock
 62
    0
370
   -2
100
AcDbLine
 10
100
 20
320
 11
300
 21
320
  0
SOLID
  5
117
100
AcDbEntity
  8
X Dims
  6
ByBlock
 62
    0
370
   -2
100
AcDbTrace
 10
100
 20
320
 30
0
 11
102.5
 21
320.4162846577728
 31
0
 12
102.5
 22
319.5837153422272
 32
0
 13
102.5
 23
319.5837153422272
 33
0
  0
SOLID
  5
118
100
AcDbEntity
  8
X Dims
  6
ByBlock
 62
    0
370
   -2
100
AcDbTrace
 10
300
 20
320
 30
0
 11
297.5
 21
319.5837153422272
 31
0
 12
297.5
 22
320.4162846577728
 32
0
 13
297.5
 23
320.4162846577728
 33
0
  0
MTEXT
  5
119
100
AcDbEntity
  8
X Dims
  6
CONTINUOUS
 62
    0
370
   -2
100
AcDbMText
 10
200
 20
321.875
 30
0
 40
2.5
 41
5
 71
    5
 72
    1
  1
200
  7
STANDARD
210
0
220
0
230
1
 50
0
 73
    2
 44
1
  0
LINE
  5
11A
100
AcDbEntity
  8
X Dims
  6
ByBlock
 62
    0
370
   -2
100
AcDbLine
 10
100
 20
300.625
 11
100
 21
321.25
  0
LINE
  5
11B
100
AcDbEntity
  8
X Dims
  6
ByBlock
 62
    0
370
   -2
100
AcDbLine
 10
300
 20
300.625
 11
300
 21
321.25
  0
ENDBLK
  5
97
330
95
100
AcDbEntity
  8
0
100
AcDbBlockEnd
  0
BLOCK
  5
99
330
98
100
AcDbEntity
  8
0
100
AcDbBlockBegin
  2
*D15
 70
    1
 10
0
 20
0
  3
*D15
  1

  0
LINE
  5
11C
100
AcDbEntity
  8
Y Dims
  6
ByBlock
 62
    0
370
   -2
100
AcDbLine
 10
109.876131535737
 20
390
 11
109.876131535737
 21
400
  0
SOLID
  5
11D
100
AcDbEntity
  8
Y Dims
  6
ByBlock
 62
    0
370
   -2
100
AcDbTrace
 10
109.876131535737
 20
390
 30
0
 11
109.4598468779642
 21
392.5
 31
0
 12
110.2924161935098
 22
392.5
 32
0
 13
110.2924161935098
 23
392.5
 33
0
  0
SOLID
  5
11E
100
AcDbEntity
  8
Y Dims
  6
ByBlock
 62
    0
370
   -2
100
AcDbTrace
 10
109.876131535737
 20
400
 30
0
 11
110.2924161935098
 21
397.5
 31
0
 12
109.4598468779642
 22
397.5
 32
0
 13
109.4598468779642
 23
397.5
 33
0
  0
MTEXT
  5
11F
100
AcDbEntity
  8
Y Dims
  6
CONTINUOUS
 62
    0
370
   -2
100
AcDbMText
 10
108.001131535737
 20
395
 30
0
 40
2.5
 41
2.5
 71
    5
 72
    1
  1
10
  7
STANDARD
210
0
220
0
230
1
 50
90
 73
    2
 44
1
  0
LINE
  5
120
100
AcDbEntity
  8
Y Dims
  6
ByBlock
 62
    0
370
   -2
100
AcDbLine
 10
115.375
 20
390
 11
108.626131535737
 21
390
  0
LINE
  5
121
100
AcDbEntity
  8
Y Dims
  6
ByBlock
 62
    0
370
   -2
100
AcDbLine
 10
115.375
 20
400
 11
108.626131535737
 21
400
  0
ENDBLK
  5
9A
330
98
100
AcDbEntity
  8
0
100
AcDbBlockEnd
  0
BLOCK
  5
9C
330
9B
100
AcDbEntity
  8
0
100
AcDbBlockBegin
  2
*D19
 70
    1
 10
0
 20
0
  3
*D19
  1

  0
LINE
  5
122
100
AcDbEntity
  8
Y Dims
  6
ByBlock
 62
    0
370
   -2
100
AcDbLine
 10
120
 20
340
 11
138
 21
340
  0
SOLID
  5
123
100
AcDbEntity
  8
Y Dims
  6
ByBlock
 62
    0
370
   -2
100
AcDbTrace
 10
120
 20
340
 30
0
 11
122.5
 21
340.4162846577728
 31
0
 12
122.5
 22
339.5837153422272
 32
0
 13
122.5
 23
339.5837153422272
 33
0
  0
SOLID
  5
124
100
AcDbEntity
  8
Y Dims
  6
ByBlock
 62
    0
370
   -2
100
AcDbTrace
 10
138
 20
340
 30
0
 11
135.5
 21
339.5837153422272
 31
0
 12
135.5
 22
340.4162846577728
 32
0
 13
135.5
 23
340.4162846577728
 33
0
  0
MTEXT
  5
125
100
AcDbEntity
  8
Y Dims
  6
CONTINUOUS
 62
    0
370
   -2
100
AcDbMText
 10
129
 20
341.875
 30
0
 40
2.5
 41
2.5
 71
    5
 72
    1
  1
18
  7
STANDARD
210
0
220
0
230
1
 50
0
 73
    2
 44
1
  0
LINE
  5
126
100
AcDbEntity
  8
Y Dims
  6
ByBlock
 62
    0
370
   -2
100
AcDbLine
 10
120
 20
355.375
 11
120
 21
338.75
  0
LINE
  5
127
100
AcDbEntity
  8
Y Dims
  6
ByBlock
 62
    0
370
   -2
100
AcDbLine
 10
138
 20
355.375
 11
138
 21
338.75
  0
ENDBLK
  5
9D
330
9B
100
AcDbEntity
  8
0
100
AcDbBlockEnd
  0
BLOCK
  5
9F
330
9E
100
AcDbEntity
  8
0
100
AcDbBlockBegin
  2
*D10
 70
    1
 10
0
 20
0
  3
*D10
  1

  0
LINE
  5
128
100
AcDbEntity
  8
X Dims
  6
ByBlock
 62
    0
370
   -2
100
AcDbLine
 10
180
 20
210
 11
220
 21
210
  0
SOLID
  5
129
100
AcDbEntity
  8
X Dims
  6
ByBlock
 62
    0
370
   -2
100
AcDbTrace
 10
180
 20
210
 30
0
 11
182.5
 21
210.4162846577728
 31
0
 12
182.5
 22
209.5837153422272
 32
0
 13
182.5
 23
209.5837153422272
 33
0
  0
SOLID
  5
12A
100
AcDbEntity
  8
X Dims
  6
ByBlock
 62
    0
370
   -2
100
AcDbTrace
 10
220
 20
210
 30
0
 11
217.5
 21
209.5837153422272
 31
0
 12
217.5
 22
210.4162846577728
 32
0
 13
217.5
 23
210.4162846577728
 33
0
  0
MTEXT
  5
12B
100
AcDbEntity
  8
X Dims
  6
CONTINUOUS
 62
    0
370
   -2
100
AcDbMText
 10
200
 20
211.875
 30
0
 40
2.5
 41
3.333333333333333
 71
    5
 72
    1
  1
40
  7
STANDARD
210
0
220
0
230
1
 50
0
 73
    2
 44
1
  0
LINE
  5
12C
100
AcDbEntity
  8
X Dims
  6
ByBlock
 62
    0
370
   -2
100
AcDbLine
 10
180
 20
200.625
 11
180
 21
211.25
  0
LINE
  5
12D
100
AcDbEntity
  8
X Dims
  6
ByBlock
 62
    0
370
   -2
100
AcDbLine
 10
220
 20
200.625
 11
220
 21
211.25
  0
ENDBLK
  5
A0
330
9E
100
AcDbEntity
  8
0
100
AcDbBlockEnd
  0
BLOCK
  5
A2
330
A1
100
AcDbEntity
  8
0
100
AcDbBlockBegin
  2
*D14
 70
    1
 10
0
 20
0
  3
*D14
  1

  0
LINE
  5
12E
100
AcDbEntity
  8
Y Dims
  6
ByBlock
 62
    0
370
   -2
100
AcDbLine
 10
116
 20
410
 11
148
 21
410
  0
SOLID
  5
12F
100
AcDbEntity
  8
Y Dims
  6
ByBlock
 62
    0
370
   -2
100
AcDbTrace
 10
116
 20
410
 30
0
 11
118.5
 21
410.4162846577728
 31
0
 12
118.5
 22
409.5837153422272
 32
0
 13
118.5
 23
409.5837153422272
 33
0
  0
SOLID
  5
130
100
AcDbEntity
  8
Y Dims
  6
ByBlock
 62
    0
370
   -2
100
AcDbTrace
 10
148
 20
410
 30
0
 11
145.5
 21
409.5837153422272
 31
0
 12
145.5
 22
410.4162846577728
 32
0
 13
145.5
 23
410.4162846577728
 33
0
  0
MTEXT
  5
131
100
AcDbEntity
  8
Y Dims
  6
CONTINUOUS
 62
    0
370
   -2
100
AcDbMText
 10
132
 20
411.875
 30
0
 40
2.5
 41
3.055555555555711
 71
    5
 72
    1
  1
32
  7
STANDARD
210
0
220
0
230
1
 50
0
 73
    2
 44
1
  0
LINE
  5
132
100
AcDbEntity
  8
Y Dims
  6
ByBlock
 62
    0
370
   -2
100
AcDbLine
 10
116
 20
390.625
 11
116
 21
411.25
  0
LINE
  5
133
100
AcDbEntity
  8
Y Dims
  6
ByBlock
 62
    0
370
   -2
100
AcDbLine
 10
148
 20
390.625
 11
148
 21
411.25
  0
ENDBLK
  5
A3
330
A1
100
AcDbEntity
  8
0
100
AcDbBlockEnd
  0
BLOCK
  5
A5
330
A4
100
AcDbEntity
  8
0
100
AcDbBlockBegin
  2
center
 70
    0
 10
0
 20
0
  3
center
  1

  0
LINE
  5
134
100
AcDbEntity
  8
X SCS8UU HolesCen
  6
ByLayer
 62
  256
370
   -1
100
AcDbLine
 10
-3
 20
0
 11
3
 21
0
  0
LINE
  5
135
100
AcDbEntity
  8
X SCS8UU HolesCen
  6
ByLayer
 62
  256
370
   -1
100
AcDbLine
 10
0
 20
-3
 11
0
 21
3
  0
ENDBLK
  5
A6
330
A4
100
AcDbEntity
  8
0
100
AcDbBlockEnd
  0
BLOCK
  5
A8
330
A7
100
AcDbEntity
  8
0
100
AcDbBlockBegin
  2
SCS8UU
 70
    0
 10
0
 20
0
  3
SCS8UU
  1

  0
CIRCLE
  5
136
100
AcDbEntity
  8
X SCS8UU Holes
  6
ByLayer
 62
  256
370
   -1
100
AcDbCircle
 10
-24
 20
-18
 40
2
  0
CIRCLE
  5
137
100
AcDbEntity
  8
X SCS8UU Holes
  6
ByLayer
 62
  256
370
   -1
100
AcDbCircle
 10
0
 20
-18
 40
2
  0
CIRCLE
  5
138
100
AcDbEntity
  8
X SCS8UU Holes
  6
ByLayer
 62
  256
370
   -1
100
AcDbCircle
 10
-24
 20
0
 40
2
  0
CIRCLE
  5
139
100
AcDbEntity
  8
X SCS8UU Holes
  6
ByLayer
 62
  256
370
   -1
100
AcDbCircle
 10
0
 20
0
 40
2
  0
POINT
  5
13A
100
AcDbEntity
  8
X Shafts
  6
ByLayer
 62
  256
370
   -1
100
AcDbPoint
 10
0
 20
0
  0
POINT
  5
13B
100
AcDbEntity
  8
X Shafts
  6
ByLayer
 62
  256
370
   -1
100
AcDbPoint
 10
0
 20
0
  0
POINT
  5
13C
100
AcDbEntity
  8
X Shafts
  6
ByLayer
 62
  256
370
   -1
100
AcDbPoint
 10
0
 20
0
  0
POINT
  5
13D
100
AcDbEntity
  8
X Shafts
  6
ByLayer
 62
  256
370
   -1
100
AcDbPoint
 10
0
 20
0
  0
POINT
  5
13E
100
AcDbEntity
  8
X Shafts
  6
ByLayer
 62
  256
370
   -1
100
AcDbPoint
 10
1.942550148473359
 20
-0.4759190274260305
  0
ENDBLK
  5
A9
330
A7
100
AcDbEntity
  8
0
100
AcDbBlockEnd
  0
BLOCK
  5
AB
330
AA
100
AcDbEntity
  8
0
100
AcDbBlockBegin
  2
hole
 70
    0
 10
0
 20
0
  3
hole
  1

  0
INSERT
  5
13F
100
AcDbEntity
  8
Y SCS8UU HolesCen
  6
ByLayer
 62
  256
370
   -1
100
AcDbBlockReference
  2
center
 10
1.036843160059362
 20
0.07705386287267402
 30
0
 41
1
 42
1
 43
0
 50
0
 70
    1
 71
    1
 44
0
 45
0
  0
LINE
  5
140
100
AcDbEntity
  8
Y SCS8UU HolesCen
  6
ByLayer
 62
  256
370
   -1
100
AcDbLine
 10
-1.963156839940638
 20
0.07705386287267402
 11
4.036843160059362
 21
0.07705386287267402
  0
LINE
  5
141
100
AcDbEntity
  8
Y SCS8UU HolesCen
  6
ByLayer
 62
  256
370
   -1
100
AcDbLine
 10
1.036843160059362
 20
-2.922946137127326
 11
1.036843160059362
 21
3.077053862872674
  0
ENDBLK
  5
AC
330
AA
100
AcDbEntity
  8
0
100
AcDbBlockEnd
  0
BLOCK
  5
AE
330
AD
100
AcDbEntity
  8
0
100
AcDbBlockBegin
  2
centr
 70
    0
 10
0
 20
0
  3
centr
  1

  0
LINE
  5
142
100
AcDbEntity
  8
X Transm Holes Cen
  6
ByBlock
 62
  256
370
   -1
100
AcDbLine
 10
-4
 20
0
 11
4
 21
0
  0
LINE
  5
143
100
AcDbEntity
  8
X Transm Holes Cen
  6
ByBlock
 62
  256
370
   -1
100
AcDbLine
 10
0
 20
-4
 11
0
 21
4
  0
ENDBLK
  5
AF
330
AD
100
AcDbEntity
  8
0
100
AcDbBlockEnd
  0
BLOCK
  5
B1
330
B0
100
AcDbEntity
  8
0
100
AcDbBlockBegin
  2
cen
 70
    0
 10
0
 20
0
  3
cen
  1

  0
LINE
  5
144
100
AcDbEntity
  8
X SH8A Holes Cen
  6
ByBlock
 62
  256
370
   -1
100
AcDbLine
 10
-4
 20
0
 11
4
 21
0
  0
LINE
  5
145
100
AcDbEntity
  8
X SH8A Holes Cen
  6
ByBlock
 62
  256
370
   -1
100
AcDbLine
 10
0
 20
-4
 11
0
 21
4
  0
ENDBLK
  5
B2
330
B0
100
AcDbEntity
  8
0
100
AcDbBlockEnd
  0
BLOCK
  5
B4
330
B3
100
AcDbEntity
  8
0
100
AcDbBlockBegin
  2
cen y trans
 70
    0
 10
0
 20
0
  3
cen y trans
  1

  0
LINE
  5
146
100
AcDbEntity
  8
Y Transm Holes Cen
  6
ByBlock
 62
  256
370
   -1
100
AcDbLine
 10
-4
 20
0
 11
4
 21
0
  0
LINE
  5
147
100
AcDbEntity
  8
Y Transm Holes Cen
  6
ByBlock
 62
  256
370
   -1
100
AcDbLine
 10
0
 20
-4
 11
0
 21
4
  0
ENDBLK
  5
B5
330
B3
100
AcDbEntity
  8
0
100
AcDbBlockEnd
  0
ENDSEC
  0
SECTION
  2
ENTITIES
  0
LWPOLYLINE
  5
148
100
AcDbEntity
  8
X Plate
  6
ByLayer
 62
  256
370
   -1
100
AcDbPolyline
 90
    4
 70
    1
 43
0
 10
100
 20
100
 10
300
 20
100
 10
300
 20
300
 10
100
 20
300
  0
INSERT
  5
149
100
AcDbEntity
  8
X SCS8UU HolesCen
  6
ByLayer
 62
  256
370
   -1
100
AcDbBlockReference
  2
center
 10
120
 20
120
 30
0
 41
1
 42
1
 43
0
 50
0
 70
    1
 71
    1
 44
0
 45
0
  0
INSERT
  5
14A
100
AcDbEntity
  8
X SCS8UU HolesCen
  6
ByLayer
 62
  256
370
   -1
100
AcDbBlockReference
  2
center
 10
144
 20
120
 30
0
 41
1
 42
1
 43
0
 50
0
 70
    1
 71
    1
 44
0
 45
0
  0
INSERT
  5
14B
100
AcDbEntity
  8
X SCS8UU HolesCen
  6
ByLayer
 62
  256
370
   -1
100
AcDbBlockReference
  2
center
 10
120
 20
138
 30
0
 41
1
 42
1
 43
0
 50
0
 70
    1
 71
    1
 44
0
 45
0
  0
INSERT
  5
14C
100
AcDbEntity
  8
X SCS8UU HolesCen
  6
ByLayer
 62
  256
370
   -1
100
AcDbBlockReference
  2
center
 10
144
 20
138
 30
0
 41
1
 42
1
 43
0
 50
0
 70
    1
 71
    1
 44
0
 45
0
  0
LWPOLYLINE
  5
14D
100
AcDbEntity
  8
Y Plate
  6
ByLayer
 62
  256
370
   -1
100
AcDbPolyline
 90
    4
 70
    1
 43
0
 10
100
 20
0
 10
300
 20
0
 10
300
 20
400
 10
100
 20
400
  0
LWPOLYLINE
  5
14E
100
AcDbEntity
  8
X Shafts
  6
ByLayer
 62
  256
370
   -1
100
AcDbPolyline
 90
    4
 70
    1
 43
0
 10
128
 20
0
 10
136
 20
0
 10
136
 20
400
 10
128
 20
400
  0
CIRCLE
  5
14F
100
AcDbEntity
  8
X SCS8UU Holes
  6
ByLayer
 62
  256
370
   -1
100
AcDbCircle
 10
120
 20
138
 40
2
  0
CIRCLE
  5
150
100
AcDbEntity
  8
X SCS8UU Holes
  6
ByLayer
 62
  256
370
   -1
100
AcDbCircle
 10
144
 20
138
 40
2
  0
CIRCLE
  5
151
100
AcDbEntity
  8
X SCS8UU Holes
  6
ByLayer
 62
  256
370
   -1
100
AcDbCircle
 10
120
 20
120
 40
2
  0
CIRCLE
  5
152
100
AcDbEntity
  8
X SCS8UU Holes
  6
ByLayer
 62
  256
370
   -1
100
AcDbCircle
 10
144
 20
120
 40
2
  0
INSERT
  5
153
100
AcDbEntity
  8
X SCS8UU HolesCen
  6
ByLayer
 62
  256
370
   -1
100
AcDbBlockReference
  2
center
 10
256
 20
120
 30
0
 41
1
 42
1
 43
0
 50
0
 70
    1
 71
    1
 44
0
 45
0
  0
INSERT
  5
154
100
AcDbEntity
  8
X SCS8UU HolesCen
  6
ByLayer
 62
  256
370
   -1
100
AcDbBlockReference
  2
center
 10
256
 20
138
 30
0
 41
1
 42
1
 43
0
 50
0
 70
    1
 71
    1
 44
0
 45
0
  0
INSERT
  5
155
100
AcDbEntity
  8
X SCS8UU HolesCen
  6
ByLayer
 62
  256
370
   -1
100
AcDbBlockReference
  2
center
 10
280
 20
138
 30
0
 41
1
 42
1
 43
0
 50
0
 70
    1
 71
    1
 44
0
 45
0
  0
CIRCLE
  5
156
100
AcDbEntity
  8
X SCS8UU Holes
  6
ByLayer
 62
  256
370
   -1
100
AcDbCircle
 10
256
 20
138
 40
2
  0
CIRCLE
  5
157
100
AcDbEntity
  8
X SCS8UU Holes
  6
ByLayer
 62
  256
370
   -1
100
AcDbCircle
 10
280
 20
138
 40
2
  0
CIRCLE
  5
158
100
AcDbEntity
  8
X SCS8UU Holes
  6
ByLayer
 62
  256
370
   -1
100
AcDbCircle
 10
256
 20
120
 40
2
  0
CIRCLE
  5
159
100
AcDbEntity
  8
X SCS8UU Holes
  6
ByLayer
 62
  256
370
   -1
100
AcDbCircle
 10
280
 20
120
 40
2
  0
INSERT
  5
15A
100
AcDbEntity
  8
X SCS8UU HolesCen
  6
ByLayer
 62
  256
370
   -1
100
AcDbBlockReference
  2
center
 10
120
 20
262
 30
0
 41
1
 42
1
 43
0
 50
0
 70
    1
 71
    1
 44
0
 45
0
  0
INSERT
  5
15B
100
AcDbEntity
  8
X SCS8UU HolesCen
  6
ByLayer
 62
  256
370
   -1
100
AcDbBlockReference
  2
center
 10
144
 20
262
 30
0
 41
1
 42
1
 43
0
 50
0
 70
    1
 71
    1
 44
0
 45
0
  0
INSERT
  5
15C
100
AcDbEntity
  8
X SCS8UU HolesCen
  6
ByLayer
 62
  256
370
   -1
100
AcDbBlockReference
  2
center
 10
120
 20
280
 30
0
 41
1
 42
1
 43
0
 50
0
 70
    1
 71
    1
 44
0
 45
0
  0
INSERT
  5
15D
100
AcDbEntity
  8
X SCS8UU HolesCen
  6
ByLayer
 62
  256
370
   -1
100
AcDbBlockReference
  2
center
 10
144
 20
280
 30
0
 41
1
 42
1
 43
0
 50
0
 70
    1
 71
    1
 44
0
 45
0
  0
CIRCLE
  5
15E
100
AcDbEntity
  8
X SCS8UU HolesCen
  6
ByLayer
 62
  256
370
   -1
100
AcDbCircle
 10
117.1715728752538
 20
277.1715728752538
 40
0
  0
CIRCLE
  5
15F
100
AcDbEntity
  8
X SCS8UU Holes
  6
ByLayer
 62
  256
370
   -1
100
AcDbCircle
 10
120
 20
280
 40
2
  0
CIRCLE
  5
160
100
AcDbEntity
  8
X SCS8UU Holes
  6
ByLayer
 62
  256
370
   -1
100
AcDbCircle
 10
144
 20
280
 40
2
  0
CIRCLE
  5
161
100
AcDbEntity
  8
X SCS8UU Holes
  6
ByLayer
 62
  256
370
   -1
100
AcDbCircle
 10
120
 20
262
 40
2
  0
CIRCLE
  5
162
100
AcDbEntity
  8
X SCS8UU Holes
  6
ByLayer
 62
  256
370
   -1
100
AcDbCircle
 10
144
 20
262
 40
2
  0
INSERT
  5
163
100
AcDbEntity
  8
X SCS8UU HolesCen
  6
ByLayer
 62
  256
370
   -1
100
AcDbBlockReference
  2
center
 10
256.2397701410331
 20
261.7582266496584
 30
0
 41
1
 42
1
 43
0
 50
0
 70
    1
 71
    1
 44
0
 45
0
  0
INSERT
  5
164
100
AcDbEntity
  8
X SCS8UU HolesCen
  6
ByLayer
 62
  256
370
   -1
100
AcDbBlockReference
  2
center
 10
280.2397701410331
 20
261.7582266496584
 30
0
 41
1
 42
1
 43
0
 50
0
 70
    1
 71
    1
 44
0
 45
0
  0
INSERT
  5
165
100
AcDbEntity
  8
X SCS8UU HolesCen
  6
ByLayer
 62
  256
370
   -1
100
AcDbBlockReference
  2
center
 10
256.2397701410331
 20
279.7582266496584
 30
0
 41
1
 42
1
 43
0
 50
0
 70
    1
 71
    1
 44
0
 45
0
  0
INSERT
  5
166
100
AcDbEntity
  8
X SCS8UU HolesCen
  6
ByLayer
 62
  256
370
   -1
100
AcDbBlockReference
  2
center
 10
280.2397701410331
 20
279.7582266496584
 30
0
 41
1
 42
1
 43
0
 50
0
 70
    1
 71
    1
 44
0
 45
0
  0
CIRCLE
  5
167
100
AcDbEntity
  8
X SCS8UU Holes
  6
ByLayer
 62
  256
370
   -1
100
AcDbCircle
 10
256.2397701410331
 20
279.7582266496584
 40
2
  0
CIRCLE
  5
168
100
AcDbEntity
  8
X SCS8UU Holes
  6
ByLayer
 62
  256
370
   -1
100
AcDbCircle
 10
280.2397701410331
 20
279.7582266496584
 40
2
  0
CIRCLE
  5
169
100
AcDbEntity
  8
X SCS8UU Holes
  6
ByLayer
 62
  256
370
   -1
100
AcDbCircle
 10
256.2397701410331
 20
261.7582266496584
 40
2
  0
CIRCLE
  5
16A
100
AcDbEntity
  8
X SCS8UU Holes
  6
ByLayer
 62
  256
370
   -1
100
AcDbCircle
 10
280.2397701410331
 20
261.7582266496584
 40
2
  0
INSERT
  5
16B
100
AcDbEntity
  8
X SCS8UU HolesCen
  6
ByLayer
 62
  256
370
   -1
100
AcDbBlockReference
  2
center
 10
279.9012820965197
 20
119.9671104368332
 30
0
 41
1
 42
1
 43
0
 50
0
 70
    1
 71
    1
 44
0
 45
0
  0
LWPOLYLINE
  5
16C
100
AcDbEntity
  8
X Shafts
  6
ByLayer
 62
  256
370
   -1
100
AcDbPolyline
 90
    4
 70
    1
 43
0
 10
264
 20
-0.09613772225605999
 10
272
 20
-0.09613772225605999
 10
272
 20
399.9038622777439
 10
264
 20
399.9038622777439
  0
CIRCLE
  5
16D
100
AcDbEntity
  8
Y SCS8UU Holes
  6
ByLayer
 62
  256
370
   -1
100
AcDbCircle
 10
120
 20
356
 40
2
  0
CIRCLE
  5
16E
100
AcDbEntity
  8
Y SCS8UU Holes
  6
ByLayer
 62
  256
370
   -1
100
AcDbCircle
 10
120
 20
380
 40
2
  0
CIRCLE
  5
16F
100
AcDbEntity
  8
Y SCS8UU Holes
  6
ByLayer
 62
  256
370
   -1
100
AcDbCircle
 10
138
 20
356
 40
2
  0
CIRCLE
  5
170
100
AcDbEntity
  8
Y SCS8UU Holes
  6
ByLayer
 62
  256
370
   -1
100
AcDbCircle
 10
138
 20
380
 40
2
  0
CIRCLE
  5
171
100
AcDbEntity
  8
Y SCS8UU Holes
  6
ByLayer
 62
  256
370
   -1
100
AcDbCircle
 10
120
 20
20
 40
2
  0
CIRCLE
  5
172
100
AcDbEntity
  8
Y SCS8UU Holes
  6
ByLayer
 62
  256
370
   -1
100
AcDbCircle
 10
120
 20
44
 40
2
  0
CIRCLE
  5
173
100
AcDbEntity
  8
Y SCS8UU Holes
  6
ByLayer
 62
  256
370
   -1
100
AcDbCircle
 10
138
 20
20
 40
2
  0
CIRCLE
  5
174
100
AcDbEntity
  8
Y SCS8UU Holes
  6
ByLayer
 62
  256
370
   -1
100
AcDbCircle
 10
138
 20
44
 40
2
  0
INSERT
  5
175
100
AcDbEntity
  8
Y SCS8UU HolesCen
  6
ByLayer
 62
  256
370
   -1
100
AcDbBlockReference
  2
center
 10
120
 20
20
 30
0
 41
1
 42
1
 43
0
 50
0
 70
    1
 71
    1
 44
0
 45
0
  0
INSERT
  5
176
100
AcDbEntity
  8
Y SCS8UU HolesCen
  6
ByLayer
 62
  256
370
   -1
100
AcDbBlockReference
  2
center
 10
120
 20
44
 30
0
 41
1
 42
1
 43
0
 50
0
 70
    1
 71
    1
 44
0
 45
0
  0
INSERT
  5
177
100
AcDbEntity
  8
Y SCS8UU HolesCen
  6
ByLayer
 62
  256
370
   -1
100
AcDbBlockReference
  2
center
 10
138
 20
20
 30
0
 41
1
 42
1
 43
0
 50
0
 70
    1
 71
    1
 44
0
 45
0
  0
INSERT
  5
178
100
AcDbEntity
  8
Y SCS8UU HolesCen
  6
ByLayer
 62
  256
370
   -1
100
AcDbBlockReference
  2
center
 10
138
 20
44
 30
0
 41
1
 42
1
 43
0
 50
0
 70
    1
 71
    1
 44
0
 45
0
  0
INSERT
  5
179
100
AcDbEntity
  8
Y SCS8UU HolesCen
  6
ByLayer
 62
  256
370
   -1
100
AcDbBlockReference
  2
center
 10
120
 20
356
 30
0
 41
1
 42
1
 43
0
 50
0
 70
    1
 71
    1
 44
0
 45
0
  0
INSERT
  5
17A
100
AcDbEntity
  8
Y SCS8UU HolesCen
  6
ByLayer
 62
  256
370
   -1
100
AcDbBlockReference
  2
center
 10
138
 20
356
 30
0
 41
1
 42
1
 43
0
 50
0
 70
    1
 71
    1
 44
0
 45
0
  0
INSERT
  5
17B
100
AcDbEntity
  8
Y SCS8UU HolesCen
  6
ByLayer
 62
  256
370
   -1
100
AcDbBlockReference
  2
center
 10
138
 20
380
 30
0
 41
1
 42
1
 43
0
 50
0
 70
    1
 71
    1
 44
0
 45
0
  0
INSERT
  5
17C
100
AcDbEntity
  8
Y SCS8UU HolesCen
  6
ByLayer
 62
  256
370
   -1
100
AcDbBlockReference
  2
center
 10
120
 20
20
 30
0
 41
1
 42
1
 43
0
 50
0
 70
    1
 71
    1
 44
0
 45
0
  0
INSERT
  5
17D
100
AcDbEntity
  8
Y SCS8UU HolesCen
  6
ByLayer
 62
  256
370
   -1
100
AcDbBlockReference
  2
center
 10
138
 20
20
 30
0
 41
1
 42
1
 43
0
 50
0
 70
    1
 71
    1
 44
0
 45
0
  0
INSERT
  5
17E
100
AcDbEntity
  8
Y SCS8UU HolesCen
  6
ByLayer
 62
  256
370
   -1
100
AcDbBlockReference
  2
center
 10
138
 20
44
 30
0
 41
1
 42
1
 43
0
 50
0
 70
    1
 71
    1
 44
0
 45
0
  0
LWPOLYLINE
  5
17F
100
AcDbEntity
  8
Base Plate
  6
ByLayer
 62
  256
370
   -1
100
AcDbPolyline
 90
    4
 70
    1
 43
0
 10
0
 20
0
 10
400
 20
0
 10
400
 20
400
 10
0
 20
400
  0
CIRCLE
  5
180
100
AcDbEntity
  8
Y SCS8UU Holes
  6
ByLayer
 62
  256
370
   -1
100
AcDbCircle
 10
262
 20
356
 40
2
  0
CIRCLE
  5
181
100
AcDbEntity
  8
Y SCS8UU Holes
  6
ByLayer
 62
  256
370
   -1
100
AcDbCircle
 10
262
 20
380
 40
2
  0
CIRCLE
  5
182
100
AcDbEntity
  8
Y SCS8UU Holes
  6
ByLayer
 62
  256
370
   -1
100
AcDbCircle
 10
280
 20
356
 40
2
  0
CIRCLE
  5
183
100
AcDbEntity
  8
Y SCS8UU Holes
  6
ByLayer
 62
  256
370
   -1
100
AcDbCircle
 10
280
 20
380
 40
2
  0
CIRCLE
  5
184
100
AcDbEntity
  8
Y SCS8UU Holes
  6
ByLayer
 62
  256
370
   -1
100
AcDbCircle
 10
262
 20
20
 40
2
  0
CIRCLE
  5
185
100
AcDbEntity
  8
Y SCS8UU Holes
  6
ByLayer
 62
  256
370
   -1
100
AcDbCircle
 10
262
 20
44
 40
2
  0
CIRCLE
  5
186
100
AcDbEntity
  8
Y SCS8UU Holes
  6
ByLayer
 62
  256
370
   -1
100
AcDbCircle
 10
280
 20
20
 40
2
  0
CIRCLE
  5
187
100
AcDbEntity
  8
Y SCS8UU Holes
  6
ByLayer
 62
  256
370
   -1
100
AcDbCircle
 10
280
 20
44
 40
2
  0
CIRCLE
  5
188
100
AcDbEntity
  8
Y SCS8UU Holes
  6
ByLayer
 62
  256
370
   -1
100
AcDbCircle
 10
280
 20
356
 40
2
  0
LINE
  5
189
100
AcDbEntity
  8
0
  6
ByBlock
 62
  256
370
   -1
100
AcDbLine
 10
0
 20
200
 11
400
 21
200
  0
LINE
  5
18A
100
AcDbEntity
  8
0
  6
ByBlock
 62
  256
370
   -1
100
AcDbLine
 10
200
 20
300
 11
200
 21
100
  0
LINE
  5
18B
100
AcDbEntity
  8
0
  6
ByBlock
 62
  256
370
   -1
100
AcDbLine
 10
180
 20
200
 11
180
 21
300
  0
LINE
  5
18C
100
AcDbEntity
  8
0
  6
ByBlock
 62
  256
370
   -1
100
AcDbLine
 10
220
 20
200
 11
220
 21
300
  0
INSERT
  5
18D
100
AcDbEntity
  8
X Transm Holes Cen
  6
ByBlock
 62
  256
370
   -1
100
AcDbBlockReference
  2
centr
 10
180
 20
200
 30
0
 41
1
 42
1
 43
0
 50
0
 70
    1
 71
    1
 44
0
 45
0
  0
INSERT
  5
18E
100
AcDbEntity
  8
X Transm Holes Cen
  6
ByBlock
 62
  256
370
   -1
100
AcDbBlockReference
  2
centr
 10
220
 20
200
 30
0
 41
1
 42
1
 43
0
 50
0
 70
    1
 71
    1
 44
0
 45
0
  0
CIRCLE
  5
18F
100
AcDbEntity
  8
X Transm Holes
  6
ByBlock
 62
  256
370
   -1
100
AcDbCircle
 10
180
 20
200
 40
2
  0
CIRCLE
  5
190
100
AcDbEntity
  8
X Transm Holes
  6
ByBlock
 62
  256
370
   -1
100
AcDbCircle
 10
220
 20
200
 40
2
  0
DIMENSION
  5
191
100
AcDbEntity
  8
X Dims
  6
ByBlock
 62
  256
370
   -1
100
AcDbDimension
  2
*D1
 10
300
 20
320
 30
0
 11
200
 21
321.875
 31
0
 70
   32
 71
    5
 72
    0
  3
Standard
 53
0
210
0
220
0
230
1
100
AcDbAlignedDimension
 13
100
 23
300
 33
0
 14
300
 24
300
 34
0
100
AcDbRotatedDimension
  0
DIMENSION
  5
192
100
AcDbEntity
  8
X Dims
  6
ByBlock
 62
  256
370
   -1
100
AcDbDimension
  2
*D2
 10
80
 20
100
 30
0
 11
78.125
 21
200
 31
0
 70
   32
 71
    5
 72
    0
  3
Standard
 53
0
210
0
220
0
230
1
100
AcDbAlignedDimension
 13
100
 23
300
 33
0
 14
100
 24
100
 34
0
 50
90
100
AcDbRotatedDimension
  0
DIMENSION
  5
193
100
AcDbEntity
  8
X Dims
  6
ByBlock
 62
  256
370
   -1
100
AcDbDimension
  2
*D3
 10
144
 20
290
 30
0
 11
132
 21
291.875
 31
0
 70
   32
 71
    5
 72
    0
  3
Standard
 53
0
210
0
220
0
230
1
100
AcDbAlignedDimension
 13
120
 23
280
 33
0
 14
144
 24
280
 34
0
100
AcDbRotatedDimension
  0
DIMENSION
  5
194
100
AcDbEntity
  8
X Dims
  6
ByBlock
 62
  256
370
   -1
100
AcDbDimension
  2
*D4
 10
111
 20
262
 30
0
 11
109.125
 21
271
 31
0
 70
   32
 71
    5
 72
    0
  3
Standard
 53
0
210
0
220
0
230
1
100
AcDbAlignedDimension
 13
120
 23
280
 33
0
 14
120
 24
262
 34
0
 50
90
100
AcDbRotatedDimension
  0
DIMENSION
  5
195
100
AcDbEntity
  8
X Dims
  6
ByBlock
 62
  256
370
   -1
100
AcDbDimension
  2
*D5
 10
111
 20
300
 30
0
 11
109.125
 21
290
 31
0
 70
   32
 71
    5
 72
    0
  3
Standard
 53
0
210
0
220
0
230
1
100
AcDbAlignedDimension
 13
120
 23
280
 33
0
 14
120.0846369261841
 24
300
 34
0
 50
90
100
AcDbRotatedDimension
  0
DIMENSION
  5
196
100
AcDbEntity
  8
X Dims
  6
ByBlock
 62
  256
370
   -1
100
AcDbDimension
  2
*D6
 10
100
 20
250.2625946284915
 30
0
 11
110
 21
252.1375946284915
 31
0
 70
   32
 71
    5
 72
    0
  3
Standard
 53
0
210
0
220
0
230
1
100
AcDbAlignedDimension
 13
120
 23
262
 33
0
 14
100
 24
261.995001684498
 34
0
100
AcDbRotatedDimension
  0
DIMENSION
  5
197
100
AcDbEntity
  8
X Dims
  6
ByBlock
 62
  256
370
   -1
100
AcDbDimension
  2
*D7
 10
144
 20
262
 30
0
 11
150.7488523874069
 21
268.752704472103
 31
0
 70
   36
 71
    5
 72
    0
  3
Standard
 53
0
210
0
220
0
230
1
100
AcDbRadialDimension
 15
145.6641005886757
 25
263.1094003924505
 35
0
 40
0
  0
DIMENSION
  5
198
100
AcDbEntity
  8
X Dims
  6
ByBlock
 62
  256
370
   -1
100
AcDbDimension
  2
*D8
 10
220
 20
200
 30
0
 11
225.2934799313826
 21
207.9451303608322
 31
0
 70
   36
 71
    5
 72
    0
  3
Standard
 53
0
210
0
220
0
230
1
100
AcDbRadialDimension
 15
221.4142135623731
 25
201.4142135623731
 35
0
 40
0
  0
DIMENSION
  5
199
100
AcDbEntity
  8
X Dims
  6
ByBlock
 62
  256
370
   -1
100
AcDbDimension
  2
*D9
 10
180
 20
210
 30
0
 11
140
 21
211.875
 31
0
 70
   32
 71
    5
 72
    0
  3
Standard
 53
0
210
0
220
0
230
1
100
AcDbAlignedDimension
 13
100
 23
200
 33
0
 14
180
 24
200
 34
0
100
AcDbRotatedDimension
  0
DIMENSION
  5
19A
100
AcDbEntity
  8
X Dims
  6
ByBlock
 62
  256
370
   -1
100
AcDbDimension
  2
*D10
 10
220
 20
210
 30
0
 11
200
 21
211.875
 31
0
 70
   32
 71
    5
 72
    0
  3
Standard
 53
0
210
0
220
0
230
1
100
AcDbAlignedDimension
 13
180
 23
200
 33
0
 14
220
 24
200
 34
0
100
AcDbRotatedDimension
  0
DIMENSION
  5
19B
100
AcDbEntity
  8
X Dims
  6
ByBlock
 62
  256
370
   -1
100
AcDbDimension
  2
*D11
 10
169.7654711940541
 20
100
 30
0
 11
167.8904711940541
 21
150
 31
0
 70
   32
 71
    5
 72
    0
  3
Standard
 53
0
210
0
220
0
230
1
100
AcDbAlignedDimension
 13
180
 23
200
 33
0
 14
180.3563446263437
 24
100
 34
0
 50
90
100
AcDbRotatedDimension
  0
LINE
  5
19C
100
AcDbEntity
  8
0
  6
ByBlock
 62
  256
370
   -1
100
AcDbLine
 10
1.10214571844014e-014
 20
380
 11
400
 21
380
  0
LINE
  5
19D
100
AcDbEntity
  8
0
  6
ByBlock
 62
  256
370
   -1
100
AcDbLine
 10
1.10214571844014e-014
 20
380
 11
400
 21
380
  0
LINE
  5
19E
100
AcDbEntity
  8
0
  6
ByBlock
 62
  256
370
   -1
100
AcDbLine
 10
132
 20
0
 11
132
 21
100
  0
LINE
  5
19F
100
AcDbEntity
  8
0
  6
ByBlock
 62
  256
370
   -1
100
AcDbLine
 10
0
 20
390
 11
100
 21
390
  0
INSERT
  5
1A0
100
AcDbEntity
  8
X SH8A Holes Cen
  6
ByBlock
 62
  256
370
   -1
100
AcDbBlockReference
  2
cen
 10
148
 20
390
 30
0
 41
1
 42
1
 43
0
 50
0
 70
    1
 71
    1
 44
0
 45
0
  0
INSERT
  5
1A1
100
AcDbEntity
  8
X SH8A Holes Cen
  6
ByBlock
 62
  256
370
   -1
100
AcDbBlockReference
  2
cen
 10
116
 20
390
 30
0
 41
1
 42
1
 43
0
 50
0
 70
    1
 71
    1
 44
0
 45
0
  0
CIRCLE
  5
1A2
100
AcDbEntity
  8
X SH8A Holes
  6
ByBlock
 62
  256
370
   -1
100
AcDbCircle
 10
116
 20
390
 40
2.5
  0
CIRCLE
  5
1A3
100
AcDbEntity
  8
X SH8A Holes
  6
ByBlock
 62
  256
370
   -1
100
AcDbCircle
 10
148
 20
390
 40
2.5
  0
LINE
  5
1A4
100
AcDbEntity
  8
0
  6
ByBlock
 62
  256
370
   -1
100
AcDbLine
 10
268
 20
0
 11
268
 21
100
  0
INSERT
  5
1A5
100
AcDbEntity
  8
X SH8A Holes Cen
  6
ByBlock
 62
  256
370
   -1
100
AcDbBlockReference
  2
cen
 10
284
 20
390
 30
0
 41
1
 42
1
 43
0
 50
0
 70
    1
 71
    1
 44
0
 45
0
  0
INSERT
  5
1A6
100
AcDbEntity
  8
X SH8A Holes Cen
  6
ByBlock
 62
  256
370
   -1
100
AcDbBlockReference
  2
cen
 10
252
 20
390
 30
0
 41
1
 42
1
 43
0
 50
0
 70
    1
 71
    1
 44
0
 45
0
  0
CIRCLE
  5
1A7
100
AcDbEntity
  8
X SH8A Holes
  6
ByBlock
 62
  256
370
   -1
100
AcDbCircle
 10
252
 20
390
 40
2.5
  0
CIRCLE
  5
1A8
100
AcDbEntity
  8
X SH8A Holes
  6
ByBlock
 62
  256
370
   -1
100
AcDbCircle
 10
284
 20
390
 40
2.5
  0
LINE
  5
1A9
100
AcDbEntity
  8
0
  6
ByBlock
 62
  256
370
   -1
100
AcDbLine
 10
0
 20
10
 11
100
 21
10
  0
INSERT
  5
1AA
100
AcDbEntity
  8
X SH8A Holes Cen
  6
ByBlock
 62
  256
370
   -1
100
AcDbBlockReference
  2
cen
 10
148
 20
10
 30
0
 41
1
 42
1
 43
0
 50
0
 70
    1
 71
    1
 44
0
 45
0
  0
INSERT
  5
1AB
100
AcDbEntity
  8
X SH8A Holes Cen
  6
ByBlock
 62
  256
370
   -1
100
AcDbBlockReference
  2
cen
 10
116
 20
10
 30
0
 41
1
 42
1
 43
0
 50
0
 70
    1
 71
    1
 44
0
 45
0
  0
CIRCLE
  5
1AC
100
AcDbEntity
  8
X SH8A Holes
  6
ByBlock
 62
  256
370
   -1
100
AcDbCircle
 10
116
 20
10
 40
2.5
  0
CIRCLE
  5
1AD
100
AcDbEntity
  8
X SH8A Holes
  6
ByBlock
 62
  256
370
   -1
100
AcDbCircle
 10
148
 20
10
 40
2.5
  0
INSERT
  5
1AE
100
AcDbEntity
  8
X SH8A Holes Cen
  6
ByBlock
 62
  256
370
   -1
100
AcDbBlockReference
  2
cen
 10
284
 20
10
 30
0
 41
1
 42
1
 43
0
 50
0
 70
    1
 71
    1
 44
0
 45
0
  0
INSERT
  5
1AF
100
AcDbEntity
  8
X SH8A Holes Cen
  6
ByBlock
 62
  256
370
   -1
100
AcDbBlockReference
  2
cen
 10
252
 20
10
 30
0
 41
1
 42
1
 43
0
 50
0
 70
    1
 71
    1
 44
0
 45
0
  0
CIRCLE
  5
1B0
100
AcDbEntity
  8
X SH8A Holes
  6
ByBlock
 62
  256
370
   -1
100
AcDbCircle
 10
252
 20
10
 40
2.5
  0
CIRCLE
  5
1B1
100
AcDbEntity
  8
X SH8A Holes
  6
ByBlock
 62
  256
370
   -1
100
AcDbCircle
 10
284
 20
10
 40
2.5
  0
LINE
  5
1B2
100
AcDbEntity
  8
0
  6
ByBlock
 62
  256
370
   -1
100
AcDbLine
 10
0
 20
220
 11
100
 21
220
  0
LINE
  5
1B3
100
AcDbEntity
  8
0
  6
ByBlock
 62
  256
370
   -1
100
AcDbLine
 10
100
 20
220
 11
100
 21
180
  0
LINE
  5
1B4
100
AcDbEntity
  8
0
  6
ByBlock
 62
  256
370
   -1
100
AcDbLine
 10
0
 20
180
 11
100
 21
180
  0
CIRCLE
  5
1B5
100
AcDbEntity
  8
Y Transm Holes
  6
ByBlock
 62
  256
370
   -1
100
AcDbCircle
 10
200
 20
220
 40
2
  0
CIRCLE
  5
1B6
100
AcDbEntity
  8
Y Transm Holes
  6
ByBlock
 62
  256
370
   -1
100
AcDbCircle
 10
200
 20
180
 40
2
  0
INSERT
  5
1B7
100
AcDbEntity
  8
Y Transm Holes Cen
  6
ByBlock
 62
  256
370
   -1
100
AcDbBlockReference
  2
cen y trans
 10
200
 20
220
 30
0
 41
1
 42
1
 43
0
 50
0
 70
    1
 71
    1
 44
0
 45
0
  0
INSERT
  5
1B8
100
AcDbEntity
  8
Y Transm Holes Cen
  6
ByBlock
 62
  256
370
   -1
100
AcDbBlockReference
  2
cen y trans
 10
200
 20
180
 30
0
 41
1
 42
1
 43
0
 50
0
 70
    1
 71
    1
 44
0
 45
0
  0
DIMENSION
  5
1B9
100
AcDbEntity
  8
Y Dims
  6
ByLayer
 62
  256
370
   -1
100
AcDbDimension
  2
*D12
 10
80
 20
400
 30
0
 11
78.125
 21
200
 31
0
 70
   32
 71
    5
  3
Standard
 53
0
210
0
220
0
230
1
100
AcDbAlignedDimension
 13
100
 23
0
 33
0
 14
100
 24
400
 34
0
 50
90
100
AcDbRotatedDimension
  0
DIMENSION
  5
1BA
100
AcDbEntity
  8
Y Dims
  6
ByLayer
 62
  256
370
   -1
100
AcDbDimension
  2
*D13
 10
300
 20
420
 30
0
 11
200
 21
421.875
 31
0
 70
   32
 71
    5
  3
Standard
 53
0
210
0
220
0
230
1
100
AcDbAlignedDimension
 13
100
 23
400
 33
0
 14
300
 24
400
 34
0
100
AcDbRotatedDimension
  0
DIMENSION
  5
1BB
100
AcDbEntity
  8
Y Dims
  6
ByLayer
 62
  256
370
   -1
100
AcDbDimension
  2
*D14
 10
148
 20
410
 30
0
 11
132
 21
411.875
 31
0
 70
   32
 71
    5
  3
Standard
 53
0
210
0
220
0
230
1
100
AcDbAlignedDimension
 13
116
 23
390
 33
0
 14
148
 24
390
 34
0
100
AcDbRotatedDimension
  0
DIMENSION
  5
1BC
100
AcDbEntity
  8
Y Dims
  6
ByLayer
 62
  256
370
   -1
100
AcDbDimension
  2
*D15
 10
109.876131535737
 20
400
 30
0
 11
108.001131535737
 21
395
 31
0
 70
   32
 71
    5
  3
Standard
 53
0
210
0
220
0
230
1
100
AcDbAlignedDimension
 13
116
 23
390
 33
0
 14
116
 24
400
 34
0
 50
90
100
AcDbRotatedDimension
  0
DIMENSION
  5
1BD
100
AcDbEntity
  8
Y Dims
  6
ByLayer
 62
  256
370
   -1
100
AcDbDimension
  2
*D16
 10
110
 20
380
 30
0
 11
108.125
 21
368
 31
0
 70
   32
 71
    5
  3
Standard
 53
0
210
0
220
0
230
1
100
AcDbAlignedDimension
 13
120
 23
356
 33
0
 14
120
 24
380
 34
0
 50
90
100
AcDbRotatedDimension
  0
DIMENSION
  5
1BE
100
AcDbEntity
  8
Y Dims
  6
ByLayer
 62
  256
370
   -1
100
AcDbDimension
  2
*D17
 10
131.4296584041545
 20
400
 30
0
 11
129.5546584041545
 21
390
 31
0
 70
   32
 71
    5
  3
Standard
 53
0
210
0
220
0
230
1
100
AcDbAlignedDimension
 13
138
 23
380
 33
0
 14
137.9894274510641
 24
400
 34
0
 50
90
100
AcDbRotatedDimension
  0
DIMENSION
  5
1BF
100
AcDbEntity
  8
Y Dims
  6
ByLayer
 62
  256
370
   -1
100
AcDbDimension
  2
*D18
 10
100
 20
410
 30
0
 11
108
 21
411.875
 31
0
 70
   32
 71
    5
  3
Standard
 53
0
210
0
220
0
230
1
100
AcDbAlignedDimension
 13
116
 23
390
 33
0
 14
100
 24
389.8377033592033
 34
0
100
AcDbRotatedDimension
  0
DIMENSION
  5
1C0
100
AcDbEntity
  8
Y Dims
  6
ByLayer
 62
  256
370
   -1
100
AcDbDimension
  2
*D19
 10
138
 20
340
 30
0
 11
129
 21
341.875
 31
0
 70
   32
 71
    5
  3
Standard
 53
0
210
0
220
0
230
1
100
AcDbAlignedDimension
 13
120
 23
356
 33
0
 14
138
 24
356
 34
0
100
AcDbRotatedDimension
  0
DIMENSION
  5
1C1
100
AcDbEntity
  8
Y Dims
  6
ByLayer
 62
  256
370
   -1
100
AcDbDimension
  2
*D20
 10
180
 20
220
 30
0
 11
178.125
 21
200
 31
0
 70
   32
 71
    5
  3
Standard
 53
0
210
0
220
0
230
1
100
AcDbAlignedDimension
 13
200
 23
180
 33
0
 14
200
 24
220
 34
0
 50
90
100
AcDbRotatedDimension
  0
DIMENSION
  5
1C2
100
AcDbEntity
  8
Y Dims
  6
ByLayer
 62
  256
370
   -1
100
AcDbDimension
  2
*D21
 10
180
 20
400
 30
0
 11
178.125
 21
310
 31
0
 70
   32
 71
    5
  3
Standard
 53
0
210
0
220
0
230
1
100
AcDbAlignedDimension
 13
200
 23
220
 33
0
 14
200
 24
400
 34
0
 50
90
100
AcDbRotatedDimension
  0
DIMENSION
  5
1C3
100
AcDbEntity
  8
Y Dims
  6
ByLayer
 62
  256
370
   -1
100
AcDbDimension
  2
*D22
 10
100
 20
160
 30
0
 11
150
 21
161.875
 31
0
 70
   32
 71
    5
  3
Standard
 53
0
210
0
220
0
230
1
100
AcDbAlignedDimension
 13
200
 23
180
 33
0
 14
100
 24
180.7014020005631
 34
0
100
AcDbRotatedDimension
  0
INSERT
  5
1C4
100
AcDbEntity
  8
Y SCS8UU HolesCen
  6
ByLayer
 62
  256
370
   -1
100
AcDbBlockReference
  2
hole
 10
136.9631568399406
 20
83.92294613712733
 30
0
 41
1
 42
1
 43
0
 50
0
 70
    1
 71
    1
 44
0
 45
0
  0
INSERT
  5
1C5
100
AcDbEntity
  8
Y SCS8UU HolesCen
  6
ByLayer
 62
  256
370
   -1
100
AcDbBlockReference
  2
hole
 10
136.9631568399406
 20
59.92294613712733
 30
0
 41
1
 42
1
 43
0
 50
0
 70
    1
 71
    1
 44
0
 45
0
  0
INSERT
  5
1C6
100
AcDbEntity
  8
Y SCS8UU HolesCen
  6
ByLayer
 62
  256
370
   -1
100
AcDbBlockReference
  2
hole
 10
118.9631568399406
 20
59.92294613712733
 30
0
 41
1
 42
1
 43
0
 50
0
 70
    1
 71
    1
 44
0
 45
0
  0
INSERT
  5
1C7
100
AcDbEntity
  8
Y SCS8UU HolesCen
  6
ByLayer
 62
  256
370
   -1
100
AcDbBlockReference
  2
hole
 10
118.9631568399406
 20
83.92294613712733
 30
0
 41
1
 42
1
 43
0
 50
0
 70
    1
 71
    1
 44
0
 45
0
  0
INSERT
  5
1C8
100
AcDbEntity
  8
Y SCS8UU HolesCen
  6
ByLayer
 62
  256
370
   -1
100
AcDbBlockReference
  2
hole
 10
260.9631568399407
 20
83.92294613712733
 30
0
 41
1
 42
1
 43
0
 50
0
 70
    1
 71
    1
 44
0
 45
0
  0
INSERT
  5
1C9
100
AcDbEntity
  8
Y SCS8UU HolesCen
  6
ByLayer
 62
  256
370
   -1
100
AcDbBlockReference
  2
hole
 10
278.9631568399407
 20
83.92294613712733
 30
0
 41
1
 42
1
 43
0
 50
0
 70
    1
 71
    1
 44
0
 45
0
  0
INSERT
  5
1CA
100
AcDbEntity
  8
Y SCS8UU HolesCen
  6
ByLayer
 62
  256
370
   -1
100
AcDbBlockReference
  2
hole
 10
278.9631568399407
 20
59.92294613712733
 30
0
 41
1
 42
1
 43
0
 50
0
 70
    1
 71
    1
 44
0
 45
0
  0
INSERT
  5
1CB
100
AcDbEntity
  8
Y SCS8UU HolesCen
  6
ByLayer
 62
  256
370
   -1
100
AcDbBlockReference
  2
hole
 10
260.9631568399407
 20
59.92294613712733
 30
0
 41
1
 42
1
 43
0
 50
0
 70
    1
 71
    1
 44
0
 45
0
  0
INSERT
  5
1CC
100
AcDbEntity
  8
Y SCS8UU HolesCen
  6
ByLayer
 62
  256
370
   -1
100
AcDbBlockReference
  2
hole
 10
118.9631568399406
 20
339.9229461371273
 30
0
 41
1
 42
1
 43
0
 50
0
 70
    1
 71
    1
 44
0
 45
0
  0
INSERT
  5
1CD
100
AcDbEntity
  8
Y SCS8UU HolesCen
  6
ByLayer
 62
  256
370
   -1
100
AcDbBlockReference
  2
hole
 10
136.9631568399406
 20
339.9229461371273
 30
0
 41
1
 42
1
 43
0
 50
0
 70
    1
 71
    1
 44
0
 45
0
  0
INSERT
  5
1CE
100
AcDbEntity
  8
Y SCS8UU HolesCen
  6
ByLayer
 62
  256
370
   -1
100
AcDbBlockReference
  2
hole
 10
136.9631568399406
 20
315.9229461371273
 30
0
 41
1
 42
1
 43
0
 50
0
 70
    1
 71
    1
 44
0
 45
0
  0
INSERT
  5
1CF
100
AcDbEntity
  8
Y SCS8UU HolesCen
  6
ByLayer
 62
  256
370
   -1
100
AcDbBlockReference
  2
hole
 10
118.9631568399406
 20
315.9229461371273
 30
0
 41
1
 42
1
 43
0
 50
0
 70
    1
 71
    1
 44
0
 45
0
  0
INSERT
  5
1D0
100
AcDbEntity
  8
Y SCS8UU HolesCen
  6
ByLayer
 62
  256
370
   -1
100
AcDbBlockReference
  2
hole
 10
260.9631568399407
 20
339.9229461371273
 30
0
 41
1
 42
1
 43
0
 50
0
 70
    1
 71
    1
 44
0
 45
0
  0
INSERT
  5
1D1
100
AcDbEntity
  8
Y SCS8UU HolesCen
  6
ByLayer
 62
  256
370
   -1
100
AcDbBlockReference
  2
hole
 10
278.9631568399407
 20
339.9229461371273
 30
0
 41
1
 42
1
 43
0
 50
0
 70
    1
 71
    1
 44
0
 45
0
  0
INSERT
  5
1D2
100
AcDbEntity
  8
Y SCS8UU HolesCen
  6
ByLayer
 62
  256
370
   -1
100
AcDbBlockReference
  2
hole
 10
260.9631568399407
 20
315.9229461371273
 30
0
 41
1
 42
1
 43
0
 50
0
 70
    1
 71
    1
 44
0
 45
0
  0
INSERT
  5
1D3
100
AcDbEntity
  8
Y SCS8UU HolesCen
  6
ByLayer
 62
  256
370
   -1
100
AcDbBlockReference
  2
hole
 10
278.9631568399407
 20
315.9229461371273
 30
0
 41
1
 42
1
 43
0
 50
0
 70
    1
 71
    1
 44
0
 45
0
  0
LWPOLYLINE
  5
1D4
100
AcDbEntity
  8
Y Shafts
  6
ByLayer
 62
  256
370
   -1
100
AcDbPolyline
 90
    4
 70
    1
 43
0
 10
400
 20
324
 10
400
 20
332
 10
0
 20
332
 10
0
 20
324
  0
LWPOLYLINE
  5
1D5
100
AcDbEntity
  8
Y Shafts
  6
ByLayer
 62
  256
370
   -1
100
AcDbPolyline
 90
    4
 70
    1
 43
0
 10
400
 20
68
 10
400
 20
76
 10
0
 20
76
 10
0
 20
68
  0
LWPOLYLINE
  5
1D6
100
AcDbEntity
  8
X Lead Screw
  6
ByLayer
 62
  256
370
   -1
100
AcDbPolyline
 90
    4
 70
    1
 43
0
 10
196
 20
0
 10
204
 20
0
 10
204
 20
400
 10
196
 20
400
  0
CIRCLE
  5
1D7
100
AcDbEntity
  8
X KP08 Holes
  6
ByBlock
 62
  256
370
   -1
100
AcDbCircle
 10
221
 20
320
 40
2
  0
CIRCLE
  5
1D8
100
AcDbEntity
  8
X KP08 Holes
  6
ByBlock
 62
  256
370
   -1
100
AcDbCircle
 10
179
 20
320
 40
2
  0
INSERT
  5
1D9
100
AcDbEntity
  8
X KP08 Holes Cen
  6
ByBlock
 62
  256
370
   -1
100
AcDbBlockReference
  2
centr
 10
179
 20
320
 30
0
 41
1
 42
1
 43
0
 50
0
 70
    1
 71
    1
 44
0
 45
0
  0
INSERT
  5
1DA
100
AcDbEntity
  8
X KP08 Holes Cen
  6
ByBlock
 62
  256
370
   -1
100
AcDbBlockReference
  2
centr
 10
221
 20
320
 30
0
 41
1
 42
1
 43
0
 50
0
 70
    1
 71
    1
 44
0
 45
0
  0
CIRCLE
  5
1DB
100
AcDbEntity
  8
X KP08 Holes
  6
ByBlock
 62
  256
370
   -1
100
AcDbCircle
 10
221
 20
80
 40
2
  0
CIRCLE
  5
1DC
100
AcDbEntity
  8
X KP08 Holes
  6
ByBlock
 62
  256
370
   -1
100
AcDbCircle
 10
179
 20
80
 40
2
  0
INSERT
  5
1DD
100
AcDbEntity
  8
X KP08 Holes Cen
  6
ByBlock
 62
  256
370
   -1
100
AcDbBlockReference
  2
centr
 10
179
 20
80
 30
0
 41
1
 42
1
 43
0
 50
0
 70
    1
 71
    1
 44
0
 45
0
  0
INSERT
  5
1DE
100
AcDbEntity
  8
X KP08 Holes Cen
  6
ByBlock
 62
  256
370
   -1
100
AcDbBlockReference
  2
centr
 10
221
 20
80
 30
0
 41
1
 42
1
 43
0
 50
0
 70
    1
 71
    1
 44
0
 45
0
  0
ENDSEC
  0
SECTION
  2
OBJECTS
  0
DICTIONARY
  5
C
330
0
100
AcDbDictionary
281
    1
  3
ACAD_GROUP
350
D
  0
DICTIONARY
  5
D
330
C
100
AcDbDictionary
281
    1
  0
ENDSEC
  0
EOF
